<svg xmlns="http://www.w3.org/2000/svg" enable-background="new 0 0 6000 4000" viewBox="0 0 6000 4000"
     id="software-development">
    <g>
        <g>
            <g>
                <g>
                    <polygon fill="#af7852"
                             points="2326.62 4000 2119.32 4000 2694.899 3236.632 2902.199 3236.632"></polygon>
                    <rect width="226.284" height="1043.242" x="4091.387" y="2956.758" fill="#af7852"></rect>
                    <polygon fill="#af7852"
                             points="4305.09 4000 4078.806 4000 3386.251 2956.758 3612.535 2956.758"></polygon>
                    <polygon fill="#af7852"
                             points="1580.518 4000 1411.185 4000 1060.028 3113.05 1229.361 3113.05"></polygon>
                </g>
                <g>
                    <polygon fill="#cc936d"
                             points="737.822 3170.561 2946.666 3327.478 4923.955 2949.467 4923.955 2807.733 3488.239 2775.021 737.822 3028.828"></polygon>
                    <polygon fill="#dba37d"
                             points="737.822 3028.828 2946.666 3185.745 4923.955 2807.733 3296.667 2679.894"></polygon>
                </g>
            </g>
            <g>
                <g>
                    <ellipse cx="3496.838" cy="2747.869" fill="#ffd680" rx="106.555" ry="12.708"></ellipse>
                    <path fill="#ffd680" d="M3341.628,2430.573c0,0-9.62,197.328,48.655,317.296h213.11c0,0,53.988-76.516,48.655-317.296
					H3341.628z"></path>
                    <ellipse cx="3496.838" cy="2430.573" fill="#ef5e8e" rx="155.209" ry="18.511"></ellipse>
                    <g>
                        <path fill="#ffd680" d="M3644.957,2696.242h-35.886v-24.679h35.886c17.188,0,31.784-11.721,35.496-28.504
						l22.126-100.048c2.392-10.816-0.214-21.973-7.15-30.611c-6.936-8.638-17.268-13.592-28.346-13.592h-37.129v-24.679h37.129
						c18.598,0,35.944,8.318,47.589,22.819c11.645,14.501,16.02,33.233,12.004,51.393l-22.126,100.048
						c-2.99,13.52-10.583,25.74-21.379,34.409C3672.375,2691.467,3658.803,2696.242,3644.957,2696.242z"></path>
                    </g>
                </g>
                <g>
                    <g>
                        <g>
                            <path fill="#ffe5e1" d="M1596.241,646.116l477.859,1341.059c3.141,9.304,12.406,15.102,22.147,13.858l756.337-97.206
							c12.893-1.646,21.066-14.666,16.943-26.993L2403.096,542.076c-3.099-9.266-12.276-15.085-21.979-13.936l-767.765,90.905
							C1600.345,620.585,1592.052,633.706,1596.241,646.116z"></path>
                            <path fill="#ffdbd4" d="M2425.244,605.779l-22.148-63.703c-3.099-9.266-12.276-15.085-21.979-13.936l-767.765,90.905
							c-13.008,1.54-21.301,14.661-17.111,27.071l19.668,55.197L2425.244,605.779z"></path>
                        </g>
                        <g>
                            <g>
                                <path fill="#ffdbd4"
                                      d="M1841.295 863.002l-78.659 9.739c-4.724.585-9.23-2.153-10.887-6.615l-28.442-76.574c-2.309-6.218 1.794-12.961 8.378-13.767l79.573-9.74c4.759-.583 9.288 2.206 10.91 6.718l27.527 76.575C1851.923 855.533 1847.828 862.193 1841.295 863.002zM1904.982 1040.273l-76.833 9.234c-4.732.569-9.234-2.194-10.869-6.67l-27.89-76.319c-2.269-6.209 1.835-12.914 8.397-13.716l77.211-9.446c4.759-.582 9.287 2.207 10.909 6.719l27.511 76.531C1915.651 1032.813 1911.532 1039.485 1904.982 1040.273zM1961.556 1206.551l-72.76 8.498c-4.74.554-9.237-2.232-10.853-6.722l-27.306-75.891c-2.227-6.19 1.86-12.849 8.388-13.665l72.577-9.075c4.768-.596 9.311 2.194 10.937 6.715l27.489 76.468C1972.264 1199.101 1968.123 1205.784 1961.556 1206.551zM2018.922 1373.012l-79.712 9.757c-4.759.583-9.288-2.206-10.91-6.719l-27.521-76.557c-2.229-6.2 1.875-12.865 8.415-13.665l79.712-9.757c4.759-.583 9.288 2.206 10.91 6.719l27.521 76.557C2029.566 1365.547 2025.462 1372.212 2018.922 1373.012z"></path>
                            </g>
                            <g>
                                <path fill="#ffdbd4" d="M2393.391,695.659l-495.708,59.83c-6.548,0.79-10.663,7.461-8.432,13.667l27.516,76.545
								c1.621,4.508,6.143,7.297,10.899,6.72l496.158-60.186c6.573-0.797,10.684-7.516,8.403-13.731l-27.966-76.189
								C2402.62,697.844,2398.119,695.088,2393.391,695.659z"></path>
                                <g>
                                    <path fill="#ffdbd4"
                                          d="M2191.023 1005.29l-199.61 24.432c-4.759.583-9.288-2.206-10.91-6.718l-27.521-76.557c-2.229-6.2 1.875-12.865 8.415-13.665l199.61-24.432c4.759-.583 9.288 2.206 10.91 6.718l27.521 76.557C2201.667 997.825 2197.563 1004.49 2191.023 1005.29zM2458.084 872.942l-237.475 28.161c-6.558.778-10.688 7.455-8.453 13.67l27.51 76.528c1.619 4.504 6.135 7.292 10.888 6.721l238.086-28.611c6.588-.792 10.707-7.531 8.406-13.755l-28.121-76.077C2467.279 875.127 2462.797 872.383 2458.084 872.942z"></path>
                                </g>
                                <g>
                                    <path fill="#ffdbd4"
                                          d="M2274.831 1342.386l-163.814 20.051c-4.759.583-9.288-2.206-10.91-6.719l-27.521-76.557c-2.229-6.2 1.875-12.865 8.415-13.665l163.814-20.051c4.759-.583 9.288 2.206 10.91 6.719l27.521 76.557C2285.475 1334.921 2281.371 1341.586 2274.831 1342.386zM2579.91 1205.048l-275.517 33.132c-6.55.788-10.668 7.46-8.437 13.668l27.539 76.607c1.609 4.477 6.083 7.262 10.811 6.73l276.441-31.121c6.597-.743 10.766-7.457 8.506-13.699l-28.463-78.618C2589.165 1207.255 2584.654 1204.478 2579.91 1205.048z"></path>
                                </g>
                                <g>
                                    <path fill="#ffdbd4"
                                          d="M2343.399 1160.763l-292.211 35.29c-4.754.574-9.274-2.214-10.894-6.72l-27.518-76.55c-2.231-6.206 1.884-12.877 8.432-13.667l292.211-35.29c4.754-.574 9.274 2.214 10.894 6.72l27.518 76.55C2354.062 1153.302 2349.947 1159.972 2343.399 1160.763zM2519.135 1039.666l-146.09 16.956c-6.571.763-10.717 7.448-8.479 13.673l27.508 76.523c1.615 4.492 6.113 7.279 10.854 6.725l146.464-17.116c6.588-.77 10.728-7.49 8.453-13.72l-27.882-76.362C2528.334 1041.88 2523.855 1039.118 2519.135 1039.666z"></path>
                                </g>
                            </g>
                            <path fill="#ffdbd4" d="M2074.401,1375.247c-1.557,0-3.016-0.964-3.573-2.513L1852.84,766.335
							c-0.709-1.973,0.315-4.148,2.289-4.857c1.972-0.71,4.148,0.314,4.857,2.288l217.988,606.399
							c0.709,1.974-0.315,4.148-2.288,4.858C2075.261,1375.175,2074.827,1375.247,2074.401,1375.247z"></path>
                        </g>
                    </g>
                    <g>
                        <g>
                            <g>
                                <g>
                                    <path fill="#ffdd96" d="M2151.085,1907.791l-885.701,107.665c-11.831,1.482-23.172-5.207-27.599-16.278
									l-237.897-595.003c-6.459-16.154,4.322-34.003,21.626-35.804l881.404-89.945c11.494-1.197,22.415,5.275,26.886,15.931
									l242.194,577.282C2178.711,1887.642,2168.303,1905.633,2151.085,1907.791z"></path>
                                </g>
                                <path fill="#ffd680" d="M1957.988,1361.535l-28.184-67.178c-4.471-10.656-15.392-17.128-26.886-15.931
								l-881.404,89.945c-17.304,1.801-28.084,19.65-21.626,35.804l20.785,51.984L1957.988,1361.535z"></path>
                            </g>
                            <path fill="#fff" d="M1343.732,1803.636l557.335-62.155c40.602-4.528,54.662-52.249,25.976-88.682
							c-22.347-28.381-56.851-50.464-108.743-38.441c0,0-58.674-190.933-288.19-165.337
							c-229.516,25.596-168.254,225.644-168.254,225.644s-54.021-0.642-80.139,27.633
							C1247.274,1739.587,1290.31,1809.594,1343.732,1803.636z"></path>
                        </g>
                        <g>
                            <path fill="#ffd680"
                                  d="M1107.974 1727.518c-3.9 0-7.218-2.988-7.557-6.946-.358-4.178 2.739-7.856 6.917-8.214l17.969-1.541c4.167-.363 7.856 2.738 8.214 6.917.358 4.178-2.739 7.856-6.917 8.214l-17.969 1.541C1108.411 1727.509 1108.192 1727.518 1107.974 1727.518zM1034.182 2267.313c-4.152 0-7.542-3.341-7.591-7.504-.049-4.193 3.31-7.633 7.503-7.683.789-.01 1.592-.064 2.387-.163l32.295-4.102c4.157-.526 7.961 2.416 8.49 6.576.528 4.161-2.416 7.962-6.577 8.49l-32.314 4.104c-1.375.171-2.748.265-4.101.28C1034.244 2267.313 1034.212 2267.313 1034.182 2267.313zM1105.255 2258.478c-3.768 0-7.036-2.802-7.523-6.638-.528-4.161 2.416-7.962 6.577-8.49l35.533-4.513c4.157-.526 7.961 2.416 8.49 6.576.528 4.161-2.416 7.962-6.577 8.49l-35.533 4.513C1105.897 2258.457 1105.574 2258.478 1105.255 2258.478zM1176.32 2249.453c-3.768 0-7.036-2.803-7.523-6.639-.528-4.16 2.417-7.961 6.577-8.489l35.532-4.512c4.164-.526 7.961 2.417 8.49 6.577s-2.417 7.961-6.577 8.489l-35.532 4.512C1176.961 2249.433 1176.639 2249.453 1176.32 2249.453zM1006.895 2247.89c-3.105 0-6.02-1.919-7.139-5.007l-12.21-33.672c-1.43-3.942.607-8.298 4.55-9.728 3.942-1.428 8.298.607 9.728 4.55l12.21 33.672c1.43 3.942-.607 8.298-4.55 9.728C1008.628 2247.742 1007.754 2247.89 1006.895 2247.89zM1247.384 2240.429c-3.768 0-7.036-2.803-7.523-6.639-.528-4.16 2.417-7.961 6.577-8.489l35.532-4.512c4.165-.526 7.961 2.417 8.49 6.577s-2.417 7.961-6.577 8.489l-35.532 4.512C1248.026 2240.408 1247.703 2240.429 1247.384 2240.429zM1318.449 2231.406c-3.768 0-7.036-2.802-7.523-6.638-.528-4.161 2.416-7.962 6.577-8.49l35.532-4.513c4.159-.525 7.961 2.416 8.49 6.576.528 4.161-2.416 7.962-6.577 8.49l-35.532 4.513C1319.091 2231.385 1318.768 2231.406 1318.449 2231.406zM1389.513 2222.381c-3.768 0-7.036-2.803-7.523-6.638-.528-4.161 2.417-7.962 6.577-8.49l35.532-4.512c4.166-.524 7.961 2.417 8.49 6.577.528 4.16-2.416 7.961-6.577 8.489l-35.532 4.512C1390.155 2222.361 1389.832 2222.381 1389.513 2222.381zM1460.578 2213.357c-3.768 0-7.036-2.803-7.523-6.638-.528-4.161 2.417-7.962 6.577-8.49l35.532-4.512c4.16-.525 7.961 2.417 8.49 6.577s-2.417 7.961-6.577 8.489l-35.532 4.512C1461.22 2213.336 1460.897 2213.357 1460.578 2213.357zM1531.643 2204.333c-3.768 0-7.036-2.802-7.523-6.638-.528-4.161 2.416-7.962 6.577-8.49l35.532-4.513c4.154-.525 7.961 2.416 8.49 6.576.528 4.161-2.416 7.962-6.577 8.49l-35.532 4.513C1532.285 2204.313 1531.961 2204.333 1531.643 2204.333zM982.473 2180.546c-3.105 0-6.02-1.919-7.139-5.007l-12.21-33.672c-1.43-3.942.607-8.298 4.55-9.728 3.942-1.428 8.298.607 9.728 4.55l12.21 33.672c1.43 3.942-.607 8.298-4.55 9.728C984.207 2180.399 983.333 2180.546 982.473 2180.546zM958.052 2113.202c-3.105 0-6.02-1.919-7.139-5.007l-12.21-33.672c-1.43-3.942.607-8.298 4.55-9.728 3.943-1.428 8.298.607 9.728 4.55l12.21 33.672c1.43 3.942-.607 8.298-4.55 9.728C959.786 2113.055 958.911 2113.202 958.052 2113.202zM933.63 2045.859c-3.105 0-6.02-1.919-7.139-5.007l-12.21-33.672c-1.43-3.942.607-8.298 4.55-9.728 3.942-1.43 8.298.608 9.728 4.55l12.21 33.672c1.43 3.942-.607 8.298-4.55 9.728C935.364 2045.711 934.49 2045.859 933.63 2045.859zM909.209 1978.515c-3.105 0-6.02-1.919-7.139-5.007l-12.21-33.672c-1.43-3.943.607-8.298 4.55-9.728 3.942-1.43 8.298.608 9.728 4.55l12.21 33.672c1.43 3.943-.607 8.298-4.55 9.728C910.943 1978.368 910.068 1978.515 909.209 1978.515zM884.788 1911.171c-3.105 0-6.02-1.919-7.139-5.007l-12.21-33.672c-1.43-3.943.607-8.298 4.55-9.728 3.943-1.43 8.298.608 9.728 4.55l12.21 33.672c1.43 3.943-.607 8.298-4.55 9.728C886.522 1911.024 885.647 1911.171 884.788 1911.171zM860.366 1843.827c-3.105 0-6.02-1.919-7.139-5.007l-12.21-33.672c-1.43-3.943.607-8.298 4.55-9.728 3.943-1.429 8.298.607 9.728 4.55l12.21 33.672c1.43 3.943-.607 8.298-4.55 9.728C862.1 1843.68 861.226 1843.827 860.366 1843.827zM837.857 1776.046c-.065 0-.13-.001-.195-.002-4.193-.105-7.506-3.59-7.4-7.783.39-15.489 11.03-29.331 25.875-33.661 4.025-1.175 8.242 1.138 9.416 5.164 1.174 4.026-1.138 8.242-5.164 9.416-8.574 2.5-14.719 10.504-14.945 19.463C845.34 1772.771 841.961 1776.046 837.857 1776.046zM893.854 1745.871c-3.9 0-7.218-2.988-7.557-6.946-.358-4.179 2.739-7.856 6.917-8.214l35.687-3.059c4.17-.36 7.856 2.739 8.214 6.917.358 4.178-2.739 7.856-6.917 8.214l-35.687 3.059C894.291 1745.861 894.071 1745.871 893.854 1745.871zM965.228 1739.753c-3.9 0-7.218-2.988-7.557-6.946-.358-4.178 2.739-7.856 6.917-8.214l35.687-3.059c4.169-.355 7.856 2.739 8.214 6.917.358 4.179-2.739 7.856-6.917 8.214l-35.687 3.059C965.665 1739.744 965.445 1739.753 965.228 1739.753zM1036.602 1733.636c-3.901 0-7.218-2.988-7.558-6.946-.358-4.179 2.739-7.856 6.917-8.214l35.687-3.059c4.172-.357 7.856 2.739 8.214 6.917.358 4.179-2.739 7.856-6.917 8.214l-35.687 3.059C1037.038 1733.626 1036.818 1733.636 1036.602 1733.636zM1602.761 2195.302c-3.768 0-7.036-2.803-7.523-6.639-.528-4.16 2.417-7.961 6.577-8.489l17.891-2.271c4.163-.525 7.961 2.417 8.49 6.577s-2.417 7.961-6.577 8.489l-17.891 2.271C1603.403 2195.281 1603.08 2195.302 1602.761 2195.302z"></path>
                        </g>
                    </g>
                    <g>
                        <g>
                            <g>
                                <path fill="#232d57" d="M2779.696,2841.775v-29.271l-74.806,5.427c-31.158-3.638-71.264-5.681-119.013-5.681
								c-144.164,0-310.851,18.618-402.978,43.545l-68.168,4.945v29.986c-1.545,19.615,70.873,33.302,194.484,33.302
								c167.133,0,364.554-25.023,440.952-55.89C2773.765,2858.605,2779.166,2852.259,2779.696,2841.775z"></path>
                                <ellipse cx="2447.545" cy="2836.335" fill="#293463" rx="333.568" ry="50.704"
                                         transform="rotate(-4.088 2447.851 2836.655)"></ellipse>
                            </g>
                            <path fill="#232d57" d="M2523.22,2831.359c0,0-15.75,13.933-93.594,13.933s-93.594-13.933-93.594-13.933
							l-113.104-301.682h187.188L2523.22,2831.359z"></path>
                        </g>
                        <g>
                            <g>
                                <path fill="#232d57" d="M3193.382,2524.897l-1357.125,201.055l-399.802-1049.481
								c-4.53-11.891-2.583-25.279,5.147-35.387c7.115-9.304,17.889-15.095,29.573-15.897l1331.918-91.424l423.429,941.55
								c4.488,9.98,3.143,21.617-3.504,30.309l-2.519,3.294C3213.884,2517.568,3204.156,2523.301,3193.382,2524.897z"></path>
                                <path fill="#293463" d="M3216.117,2494.134l-1356.234,200.924l-397.383-1043.129
								c-4.872-12.79,3.818-26.696,17.45-27.922l1346.769-121.138l400.279,972.107
								C3230.46,2483.38,3225.109,2492.801,3216.117,2494.134z"></path>
                            </g>
                            <g>
                                <g>
                                    <polygon fill="#dbe5ff"
                                             points="3171.301 2463.958 1893.816 2653.215 1515.302 1659.616 2792.787 1544.71"></polygon>
                                </g>
                                <g>
                                    <path fill="#232d57" d="M1893.812,2660.354c-2.923,0-5.6-1.799-6.666-4.598l-378.515-993.598
									c-0.795-2.089-0.567-4.429,0.618-6.325c1.184-1.895,3.188-3.127,5.414-3.327L2792.147,1537.6
									c3.11-0.282,6.05,1.499,7.241,4.392l378.514,919.249c0.836,2.031,0.69,4.333-0.394,6.243
									c-1.085,1.911-2.988,3.215-5.161,3.536l-1277.486,189.257C1894.51,2660.329,1894.159,2660.354,1893.812,2660.354z
									 M1525.328,1665.881l373.116,979.431l1262.779-187.078l-373.036-905.944L1525.328,1665.881z"></path>
                                </g>
                            </g>
                        </g>
                        <g>
                            <path fill="#bacdff" d="M2276.687,2128.578l-466.642,59.29c-2.317,0.294-4.981-1.524-5.95-4.062l-16.203-42.416
							c-0.969-2.538,0.123-4.834,2.439-5.128l466.642-59.29c2.317-0.294,4.981,1.524,5.95,4.062l16.203,42.416
							C2280.096,2125.988,2279.003,2128.283,2276.687,2128.578z"></path>
                            <path fill="#9dbaf9" d="M2855.694,1807.002l-466.642,59.29c-2.317,0.294-4.981-1.524-5.95-4.062l-16.203-42.416
							c-0.969-2.538,0.123-4.834,2.439-5.128l466.642-59.29c2.317-0.294,4.981,1.524,5.95,4.062l16.203,42.416
							C2859.103,1804.412,2858.011,1806.708,2855.694,1807.002z"></path>
                            <path fill="#bacdff" d="M2886.086,1886.562l-466.642,59.29c-2.317,0.294-4.981-1.524-5.95-4.062l-16.203-42.416
							c-0.969-2.538,0.123-4.834,2.439-5.128l466.642-59.29c2.317-0.294,4.981,1.524,5.95,4.062l16.203,42.416
							C2889.495,1883.972,2888.403,1886.268,2886.086,1886.562z"></path>
                            <path fill="#ffcc7c" d="M2974.492,2120.217l-463.871,64.313c-2.317,0.294-4.981-1.524-5.95-4.062l-16.203-42.416
							c-0.969-2.538,0.123-4.834,2.439-5.128l463.871-64.313c2.317-0.294,4.981,1.524,5.95,4.062l16.203,42.416
							C2977.901,2117.627,2976.809,2119.923,2974.492,2120.217z"></path>
                            <path fill="#9dbaf9" d="M3005.341,2198.051l-464.327,66.039c-2.317,0.294-4.981-1.524-5.95-4.062l-16.203-42.416
							c-0.969-2.538,0.123-4.834,2.439-5.128l464.327-66.039c2.317-0.294,4.981,1.524,5.95,4.062l16.203,42.416
							C3008.75,2195.461,3007.658,2197.757,3005.341,2198.051z"></path>
                            <path fill="#ef5e8e" d="M2765.265,2314.361l-325.375,45.999c-2.317,0.294-4.981-1.524-5.95-4.062l-16.203-42.416
							c-0.969-2.538,0.123-4.834,2.439-5.128l325.375-45.999c2.317-0.294,4.981,1.524,5.95,4.062l16.203,42.416
							C2768.673,2311.771,2767.581,2314.066,2765.265,2314.361z"></path>
                            <path fill="#9dbaf9" d="M3067.62,2351.821l-598.159,85.948c-2.317,0.294-4.981-1.524-5.95-4.062l-16.203-42.416
							c-0.969-2.538,0.123-4.834,2.439-5.128l598.159-85.948c2.317-0.294,4.981,1.524,5.95,4.062l16.203,42.416
							C3071.029,2349.231,3069.937,2351.527,3067.62,2351.821z"></path>
                            <path fill="#ef5e8e" d="M2783.703,1981.16l-465.384,60.962c-2.317,0.294-4.981-1.524-5.95-4.062l-16.203-42.416
							c-0.969-2.538,0.123-4.834,2.439-5.128l465.384-60.962c2.317-0.294,4.981,1.524,5.95,4.062l16.203,42.416
							C2787.112,1978.569,2786.02,1980.865,2783.703,1981.16z"></path>
                            <path fill="#9dbaf9" d="M2882.42,2048.078l-465.827,62.724c-2.317,0.294-4.981-1.524-5.95-4.062l-16.203-42.416
							c-0.969-2.538,0.123-4.834,2.439-5.128l465.827-62.724c2.317-0.294,4.981,1.524,5.95,4.062l16.203,42.416
							C2885.829,2045.488,2884.737,2047.784,2882.42,2048.078z"></path>
                            <path fill="#bacdff"
                                  d="M1901.704 1928.213l-47.436 5.104c-2.317.294-4.981-1.524-5.95-4.062l-16.203-42.416c-.969-2.538.123-4.834 2.44-5.128l47.436-5.104c2.317-.294 4.981 1.524 5.95 4.062l16.203 42.416C1905.113 1925.623 1904.021 1927.919 1901.704 1928.213zM1932.097 2007.773l-46.573 5.917c-2.317.294-4.981-1.524-5.95-4.062l-16.203-42.416c-.969-2.538.123-4.834 2.439-5.128l46.573-5.917c2.317-.294 4.981 1.524 5.95 4.062l16.203 42.416C1935.506 2005.182 1934.413 2007.479 1932.097 2007.773zM1962.489 2087.332l-46.573 5.917c-2.317.294-4.981-1.524-5.95-4.062l-16.203-42.416c-.969-2.538.123-4.834 2.439-5.128l46.573-5.917c2.317-.294 4.981 1.524 5.95 4.062l16.203 42.416C1965.898 2084.742 1964.806 2087.038 1962.489 2087.332z"></path>
                            <path fill="#9dbaf9" d="M2187.449,1895.574l-247.911,27.833c-2.317,0.294-4.981-1.524-5.95-4.062l-16.203-42.416
							c-0.969-2.538,0.123-4.834,2.439-5.128l247.911-27.833c2.317-0.294,4.981,1.524,5.95,4.062l16.203,42.416
							C2190.858,1892.983,2189.766,1895.279,2187.449,1895.574z"></path>
                            <path fill="#ffcc7c" d="M2216.723,1971.609l-246.793,31.357c-2.317,0.294-4.981-1.524-5.95-4.062l-16.203-42.416
							c-0.969-2.538,0.123-4.834,2.439-5.128l246.793-31.357c2.317-0.294,4.981,1.524,5.95,4.062l16.203,42.416
							C2220.132,1969.019,2219.04,1971.315,2216.723,1971.609z"></path>
                            <path fill="#9dbaf9" d="M2247.116,2051.169l-246.793,31.357c-2.317,0.294-4.981-1.524-5.95-4.062l-16.203-42.416
							c-0.969-2.538,0.123-4.834,2.439-5.128l246.793-31.357c2.317-0.294,4.981,1.524,5.95,4.062l16.203,42.416
							C2250.525,2048.578,2249.432,2050.874,2247.116,2051.169z"></path>
                            <path fill="#ef5e8e" d="M2398.257,2446.816l-466.642,69.217c-2.317,0.294-4.981-1.524-5.95-4.062l-16.203-42.416
							c-0.969-2.538,0.123-4.834,2.439-5.128l466.642-69.217c2.317-0.294,4.981,1.524,5.95,4.062l16.203,42.416
							C2401.666,2444.226,2400.573,2446.521,2398.257,2446.816z"></path>
                            <path fill="#bacdff"
                                  d="M2023.274 2246.451l-46.573 5.917c-2.317.294-4.981-1.524-5.95-4.062l-16.203-42.416c-.969-2.538.123-4.834 2.439-5.128l46.573-5.917c2.317-.294 4.981 1.524 5.95 4.062l16.203 42.416C2026.683 2243.861 2025.591 2246.157 2023.274 2246.451zM2053.667 2326.011l-46.573 5.917c-2.317.294-4.981-1.524-5.95-4.062l-16.203-42.416c-.969-2.538.123-4.834 2.439-5.128l46.573-5.917c2.317-.294 4.981 1.524 5.95 4.062l16.203 42.416C2057.075 2323.42 2055.983 2325.717 2053.667 2326.011zM2084.059 2405.57l-46.573 5.917c-2.317.294-4.981-1.524-5.95-4.062l-16.203-42.416c-.969-2.538.123-4.834 2.439-5.128l46.573-5.917c2.317-.294 4.981 1.524 5.95 4.062l16.203 42.416C2087.468 2402.98 2086.376 2405.276 2084.059 2405.57z"></path>
                            <path fill="#9dbaf9" d="M2307.901,2210.288l-246.793,31.357c-2.317,0.294-4.981-1.524-5.95-4.062l-16.203-42.416
							c-0.969-2.538,0.123-4.834,2.439-5.128l246.793-31.357c2.317-0.294,4.981,1.524,5.95,4.062l16.203,42.416
							C2311.31,2207.697,2310.217,2209.993,2307.901,2210.288z"></path>
                            <path fill="#ef5e8e" d="M2338.293,2289.847l-246.793,31.357c-2.317,0.294-4.981-1.524-5.95-4.062l-16.203-42.416
							c-0.969-2.538,0.123-4.834,2.439-5.128l246.793-31.357c2.317-0.294,4.981,1.524,5.95,4.062l16.203,42.416
							C2341.702,2287.257,2340.61,2289.553,2338.293,2289.847z"></path>
                            <path fill="#9dbaf9" d="M2368.686,2369.406l-246.793,31.357c-2.317,0.294-4.981-1.524-5.95-4.062l-16.203-42.416
							c-0.969-2.538,0.123-4.834,2.439-5.128l246.793-31.357c2.317-0.294,4.981,1.524,5.95,4.062l16.203,42.416
							C2372.094,2366.816,2371.002,2369.112,2368.686,2369.406z"></path>
                            <g>
                                <path fill="#bacdff" d="M2434.075,2446.537c-1.72,0-3.341-1.046-3.991-2.748l-262.032-685.932
								c-0.842-2.204,0.262-4.673,2.466-5.515c2.205-0.841,4.672,0.263,5.515,2.466l262.032,685.932
								c0.842,2.204-0.262,4.673-2.466,5.515C2435.097,2446.447,2434.581,2446.537,2434.075,2446.537z"></path>
                            </g>
                            <g>
                                <path fill="#ef5e8e" d="M2142.163,1753.716c-0.596-1.702-2.287-2.768-4.08-2.571l-471.43,51.833
								c-2.317,0.295-3.409,2.591-2.44,5.128l16.203,42.416c0.97,2.538,3.634,4.357,5.95,4.062l468.055-51.462
								c2.477-0.272,4.056-2.778,3.233-5.13L2142.163,1753.716z"></path>
                                <path fill="#9dbaf9" d="M2701.186,1738.146l-16.203-42.416c-0.969-2.538-3.634-4.357-5.95-4.063l-473.591,52.071
								c-2.513,0.276-4.092,2.847-3.203,5.213l16.595,44.155c0.623,1.657,2.29,2.681,4.049,2.488l475.863-52.321
								C2701.063,1742.979,2702.156,1740.684,2701.186,1738.146z"></path>
                            </g>
                        </g>
                        <path fill="#232d57"
                              d="M1836.258 2725.952l320.889-47.539-167.79-510.523c-3.95-12.019-15.922-19.502-28.457-17.787l-326.966 44.748L1836.258 2725.952zM2826.72 1502.868l-436.089 39.225 199.4 495.095c4.92 12.215 17.45 19.584 30.516 17.947l412.303-51.663L2826.72 1502.868z"
                              opacity=".1"></path>
                    </g>
                    <g>
                        <g>
                            <g>
                                <path fill="#ffdbd4" d="M3303.165,934.314c-3.099,0-6.254-0.078-9.378-0.232c-4.188-0.207-7.417-3.77-7.21-7.958
								c0.205-4.188,3.757-7.419,7.958-7.211c11.661,0.574,23.27-0.023,34.4-1.77c4.136-0.652,8.028,2.182,8.679,6.325
								c0.649,4.143-2.182,8.029-6.325,8.679C3322.125,933.584,3312.664,934.313,3303.165,934.314z M3258.521,928.959
								c-0.584,0-1.177-0.068-1.771-0.209c-12.006-2.869-23.923-6.859-35.42-11.859c-3.847-1.673-5.607-6.146-3.936-9.992
								c1.673-3.845,6.146-5.608,9.992-3.935c10.684,4.646,21.75,8.353,32.893,11.015c4.079,0.975,6.596,5.071,5.621,9.15
								C3265.068,926.614,3261.955,928.959,3258.521,928.959z M3364.831,922.78c-3.017,0-5.87-1.81-7.056-4.783
								c-1.553-3.896,0.346-8.313,4.241-9.866c10.701-4.267,20.802-9.754,30.021-16.31c3.419-2.43,8.161-1.628,10.589,1.789
								c2.431,3.418,1.63,8.159-1.788,10.589c-10.204,7.255-21.373,13.325-33.196,18.039
								C3366.719,922.605,3365.767,922.78,3364.831,922.78z M3192.645,900.418c-1.423,0-2.861-0.399-4.142-1.234
								c-10.36-6.757-20.27-14.439-29.452-22.831c-3.096-2.83-3.312-7.633-0.482-10.729c2.83-3.095,7.634-3.311,10.729-0.482
								c8.577,7.839,17.83,15.013,27.503,21.321c3.513,2.291,4.503,6.996,2.212,10.509
								C3197.556,899.204,3195.125,900.418,3192.645,900.418z M3422.95,881.323c-1.74,0-3.488-0.595-4.918-1.811
								c-3.193-2.718-3.579-7.511-0.861-10.704c7.364-8.652,13.655-18.242,18.697-28.503c1.85-3.764,6.396-5.318,10.165-3.466
								c3.764,1.85,5.315,6.4,3.466,10.164c-5.598,11.39-12.583,22.038-20.762,31.647
								C3427.235,880.416,3425.099,881.323,3422.95,881.323z M3139.632,851.963c-2.244,0-4.467-0.991-5.966-2.889
								c-7.753-9.824-14.684-20.286-20.599-31.095c-2.014-3.679-0.663-8.293,3.016-10.307c3.681-2.014,8.294-0.663,10.307,3.016
								c5.51,10.067,11.969,19.816,19.198,28.977c2.598,3.292,2.035,8.067-1.257,10.666
								C3142.939,851.43,3141.28,851.963,3139.632,851.963z M3454.558,817.294c-0.545,0-1.098-0.059-1.651-0.182
								c-4.095-0.908-6.677-4.963-5.769-9.058c2.433-10.966,3.666-22.45,3.666-34.131c0-2.012,0.782-3.84,2.06-5.199
								c-1.358-1.279-2.251-3.058-2.373-5.067c-0.689-11.346-2.541-22.809-5.503-34.069c-1.066-4.056,1.356-8.208,5.412-9.275
								c4.056-1.068,8.209,1.356,9.275,5.412c3.215,12.221,5.225,24.674,5.975,37.012c0.132,2.173-0.664,4.188-2.046,5.66
								c1.47,1.385,2.388,3.349,2.388,5.528c0,12.786-1.355,25.376-4.027,37.42C3461.179,814.884,3458.041,817.294,3454.558,817.294
								z M3105.277,788.936c-3.176,0-6.137-2.008-7.2-5.186c-4.009-11.98-6.859-24.256-8.475-36.487
								c-0.549-4.158,2.377-7.974,6.534-8.522c4.158-0.549,7.973,2.377,8.522,6.534c1.488,11.271,4.119,22.595,7.82,33.657
								c1.331,3.977-0.814,8.28-4.792,9.61C3106.888,788.809,3106.076,788.936,3105.277,788.936z M3096.058,717.885
								c-0.188,0-0.377-0.007-0.567-0.021c-4.183-0.309-7.322-3.95-7.014-8.133c0.942-12.744,3.278-25.208,6.943-37.047
								c1.24-4.006,5.486-6.25,9.499-5.009c4.007,1.24,6.249,5.493,5.009,9.499c-3.326,10.746-5.447,22.076-6.305,33.677
								C3103.328,714.843,3099.998,717.885,3096.058,717.885z M3440.001,701.413c-2.851,0-5.582-1.612-6.876-4.363
								c-4.873-10.359-10.738-20.466-17.434-30.041c-2.402-3.437-1.564-8.171,1.872-10.575c3.439-2.404,8.171-1.564,10.575,1.872
								c7.188,10.281,13.489,21.141,18.729,32.28c1.785,3.795,0.156,8.318-3.639,10.104
								C3442.184,701.181,3441.084,701.413,3440.001,701.413z M3117.368,649.682c-1.338,0-2.692-0.354-3.92-1.095
								c-3.59-2.169-4.741-6.837-2.572-10.426c6.547-10.836,14.436-20.833,23.446-29.714c2.988-2.943,7.796-2.908,10.738,0.079
								c2.944,2.987,2.909,7.795-0.078,10.739c-8.111,7.994-15.213,16.994-21.108,26.75
								C3122.447,648.375,3119.939,649.682,3117.368,649.682z M3398.918,642.514c-1.974,0-3.945-0.765-5.433-2.288
								c-8.108-8.3-16.94-15.99-26.251-22.856c-3.375-2.489-4.094-7.243-1.604-10.618c2.488-3.375,7.244-4.093,10.618-1.604
								c9.968,7.35,19.422,15.582,28.101,24.467c2.931,3,2.875,7.808-0.125,10.738
								C3402.747,641.795,3400.832,642.514,3398.918,642.514z M3341.081,599.924c-1.157,0-2.331-0.265-3.433-0.825
								c-10.394-5.279-21.221-9.658-32.18-13.015c-4.011-1.229-6.266-5.475-5.037-9.485c1.228-4.011,5.48-6.264,9.484-5.037
								c11.794,3.613,23.438,8.322,34.609,13.997c3.739,1.899,5.231,6.47,3.332,10.209
								C3346.517,598.405,3343.848,599.924,3341.081,599.924z M3168.171,599.555c-2.6,0-5.131-1.335-6.548-3.737
								c-2.13-3.612-0.929-8.268,2.684-10.398c10.757-6.345,22.381-11.463,34.548-15.212c4.007-1.234,8.258,1.012,9.493,5.021
								c1.235,4.008-1.013,8.258-5.021,9.493c-11.036,3.4-21.568,8.037-31.306,13.78
								C3170.811,599.215,3169.483,599.555,3168.171,599.555z M3272.45,579.001c-0.294,0-0.591-0.017-0.889-0.052
								c-11.624-1.355-23.281-1.578-34.503-0.663c-4.179,0.333-7.846-2.771-8.186-6.951c-0.341-4.18,2.771-7.845,6.951-8.186
								c12.214-0.996,24.885-0.755,37.495,0.714c4.166,0.485,7.149,4.256,6.664,8.422
								C3279.532,576.153,3276.25,579.001,3272.45,579.001z"></path>
                            </g>
                            <g>
                                <path fill="#ffdbd4"
                                      d="M3236.189 788.303c-.688-1.081-1.732-1.923-3.139-2.529l-46.558-20.633 40.47-30.55c1.109-.911 1.9-1.923 2.375-3.036.474-1.111.646-2.214.512-3.309-.28-2.295-1.509-4.392-3.682-6.291-2.174-1.898-4.354-2.713-6.54-2.446-1.094.134-2.24.523-3.436 1.169-1.197.646-2.454 1.493-3.767 2.541l-49.549 37.177c-1.218.926-2.071 2.112-2.561 3.558-.489 1.449-.641 2.937-.453 4.466.174 1.422.672 2.776 1.495 4.061.823 1.288 1.943 2.288 3.362 3.001l57.123 24.809c1.636.689 3.181 1.304 4.636 1.846 1.452.546 2.779.742 3.983.595 1.857-.227 3.566-1.46 5.123-3.705 1.558-2.242 2.175-4.676 1.854-7.3C3237.292 790.527 3236.875 789.385 3236.189 788.303zM3316.762 661.123c-2.094-1.242-4.069-1.75-5.928-1.523-1.422.174-2.734.779-3.939 1.813-1.204 1.037-2.099 2.365-2.675 3.988l-49.926 144.406c-.496 1.392-.664 2.744-.504 4.056.294 2.404 1.519 4.251 3.674 5.543 2.154 1.29 4.159 1.822 6.02 1.595 1.529-.187 2.87-.795 4.021-1.823 1.148-1.029 2.014-2.355 2.593-3.979l49.763-144.386c.496-1.393.663-2.744.503-4.056C3320.056 664.244 3318.855 662.365 3316.762 661.123zM3417.149 738.314c-.187-1.53-.692-2.938-1.515-4.225-.823-1.285-1.937-2.231-3.343-2.837l-57.122-24.809c-1.639-.686-3.184-1.301-4.636-1.847-1.456-.542-2.782-.742-3.984-.595-1.75.214-3.431 1.446-5.041 3.695-1.612 2.252-2.257 4.687-1.937 7.311.147 1.204.563 2.345 1.252 3.425.686 1.081 1.732 1.926 3.138 2.529l46.558 20.633-40.47 30.55c-1.11.913-1.905 1.897-2.385 2.954-.482 1.058-.648 2.188-.501 3.39.28 2.295 1.506 4.393 3.681 6.291 2.172 1.898 4.353 2.713 6.54 2.446 1.202-.147 2.37-.565 3.508-1.261 1.135-.693 2.366-1.509 3.694-2.449l49.549-37.177c1.219-.924 2.072-2.11 2.561-3.558C3417.185 741.334 3417.336 739.846 3417.149 738.314z"></path>
                            </g>
                        </g>
                        <g>
                            <g>
                                <path fill="#ffdbd4" d="M1298.476,1264.635c-3.125,0-6.28-0.078-9.395-0.232c-4.189-0.207-7.417-3.77-7.21-7.959
								c0.207-4.189,3.774-7.42,7.959-7.21c2.871,0.142,5.815,0.208,8.645,0.213c8.703,0,17.367-0.667,25.755-1.983
								c4.144-0.645,8.029,2.183,8.679,6.325c0.65,4.143-2.182,8.029-6.325,8.679
								C1317.421,1263.906,1307.964,1264.635,1298.476,1264.635z M1253.817,1259.281c-0.584,0-1.177-0.068-1.771-0.21
								c-12.006-2.868-23.923-6.859-35.42-11.859c-3.846-1.673-5.607-6.147-3.934-9.993c1.673-3.845,6.147-5.606,9.992-3.934
								c10.682,4.647,21.749,8.353,32.891,11.014c4.079,0.974,6.596,5.071,5.621,9.15
								C1260.364,1256.936,1257.25,1259.281,1253.817,1259.281z M1360.126,1253.099c-3.017,0-5.87-1.809-7.056-4.783
								c-1.553-3.895,0.345-8.313,4.241-9.865c10.701-4.267,20.801-9.754,30.021-16.31c3.418-2.428,8.159-1.629,10.589,1.789
								c2.43,3.418,1.629,8.159-1.789,10.589c-10.205,7.255-21.373,13.324-33.196,18.038
								C1362.014,1252.925,1361.062,1253.099,1360.126,1253.099z M1187.94,1230.739c-1.422,0-2.861-0.399-4.141-1.234
								c-10.361-6.757-20.27-14.438-29.452-22.831c-3.096-2.829-3.312-7.633-0.482-10.729c2.83-3.095,7.633-3.31,10.728-0.482
								c8.576,7.838,17.829,15.012,27.502,21.32c3.513,2.291,4.503,6.997,2.212,10.509
								C1192.852,1229.525,1190.42,1230.739,1187.94,1230.739z M1418.245,1211.644c-1.74,0-3.489-0.595-4.918-1.811
								c-3.194-2.718-3.579-7.51-0.861-10.704c7.364-8.652,13.655-18.241,18.697-28.502c1.85-3.763,6.4-5.315,10.164-3.466
								c3.764,1.849,5.316,6.401,3.466,10.164c-5.597,11.389-12.582,22.037-20.762,31.648
								C1422.529,1210.736,1420.394,1211.644,1418.245,1211.644z M1134.928,1182.285c-2.245,0-4.467-0.99-5.966-2.889
								c-7.753-9.823-14.683-20.284-20.599-31.094c-2.013-3.679-0.663-8.293,3.016-10.307c3.679-2.012,8.293-0.664,10.307,3.015
								c5.51,10.068,11.969,19.816,19.198,28.976c2.598,3.292,2.036,8.067-1.256,10.666
								C1138.234,1181.752,1136.575,1182.285,1134.928,1182.285z M1449.853,1147.615c-0.545,0-1.098-0.059-1.652-0.182
								c-4.094-0.908-6.677-4.964-5.769-9.058c2.433-10.967,3.667-22.45,3.667-34.13c0-2.012,0.783-3.842,2.061-5.201
								c-1.359-1.279-2.252-3.058-2.374-5.068c-0.691-11.348-2.543-22.811-5.504-34.07c-1.067-4.056,1.356-8.209,5.412-9.276
								c4.056-1.062,8.209,1.356,9.275,5.412c3.214,12.22,5.224,24.672,5.975,37.01c0.132,2.175-0.664,4.192-2.047,5.663
								c1.47,1.385,2.388,3.35,2.388,5.529c0,12.785-1.355,25.375-4.027,37.419
								C1456.474,1145.205,1453.335,1147.615,1449.853,1147.615z M1100.571,1119.257c-3.176,0-6.137-2.008-7.2-5.186
								c-4.009-11.979-6.86-24.255-8.475-36.487c-0.549-4.158,2.376-7.974,6.534-8.522c4.156-0.554,7.973,2.377,8.522,6.533
								c1.489,11.272,4.12,22.595,7.821,33.658c1.331,3.977-0.815,8.28-4.792,9.611
								C1102.182,1119.13,1101.37,1119.257,1100.571,1119.257z M1091.352,1048.207c-0.188,0-0.377-0.006-0.568-0.02
								c-4.182-0.31-7.322-3.951-7.013-8.133c0.942-12.742,3.278-25.207,6.942-37.047c1.24-4.007,5.493-6.247,9.499-5.009
								c4.006,1.24,6.249,5.493,5.009,9.499c-3.326,10.746-5.447,22.076-6.305,33.676
								C1098.621,1045.164,1095.291,1048.207,1091.352,1048.207z M1435.295,1031.731c-2.851,0-5.583-1.613-6.876-4.363
								c-4.874-10.361-10.739-20.468-17.433-30.04c-2.403-3.437-1.566-8.172,1.871-10.575c3.437-2.405,8.171-1.566,10.575,1.871
								c7.187,10.279,13.489,21.139,18.729,32.279c1.785,3.795,0.156,8.318-3.639,10.104
								C1437.478,1031.498,1436.378,1031.731,1435.295,1031.731z M1112.661,980.003c-1.337,0-2.692-0.353-3.92-1.095
								c-3.589-2.169-4.741-6.837-2.572-10.426c6.548-10.837,14.436-20.834,23.446-29.713c2.987-2.943,7.795-2.909,10.739,0.079
								c2.944,2.987,2.908,7.795-0.079,10.739c-8.111,7.993-15.212,16.993-21.107,26.749
								C1117.741,978.696,1115.232,980.003,1112.661,980.003z M1394.211,972.833c-1.974,0-3.945-0.765-5.433-2.288
								c-8.105-8.3-16.936-15.989-26.249-22.857c-3.375-2.489-4.094-7.242-1.605-10.618c2.489-3.375,7.243-4.093,10.618-1.605
								c9.971,7.352,19.425,15.584,28.101,24.468c2.93,3.001,2.873,7.809-0.127,10.739
								C1398.039,972.115,1396.124,972.833,1394.211,972.833z M1336.374,930.244c-1.157,0-2.331-0.265-3.433-0.825
								c-10.396-5.281-21.222-9.66-32.179-13.015c-4.01-1.228-6.265-5.475-5.037-9.485c1.228-4.01,5.474-6.265,9.484-5.037
								c11.792,3.611,23.436,8.321,34.609,13.996c3.739,1.899,5.231,6.47,3.331,10.209
								C1341.811,928.725,1339.142,930.244,1336.374,930.244z M1163.465,929.876c-2.599,0-5.131-1.336-6.548-3.737
								c-2.131-3.612-0.93-8.267,2.683-10.398c10.759-6.346,22.383-11.465,34.549-15.212c4.008-1.23,8.258,1.014,9.493,5.021
								c1.235,4.008-1.013,8.258-5.021,9.493c-11.034,3.399-21.566,8.035-31.304,13.779
								C1166.104,929.537,1164.776,929.876,1163.465,929.876z M1267.743,909.322c-0.294,0-0.59-0.018-0.889-0.052
								c-11.622-1.355-23.287-1.578-34.503-0.663c-4.181,0.319-7.845-2.772-8.186-6.951c-0.341-4.18,2.771-7.845,6.951-8.186
								c12.209-0.997,24.885-0.757,37.497,0.715c4.166,0.486,7.149,4.257,6.663,8.422
								C1274.825,906.473,1271.543,909.322,1267.743,909.322z"></path>
                            </g>
                            <g>
                                <path fill="#ffdbd4"
                                      d="M1223.5 1114.136c-.712-1.169-1.808-2.091-3.295-2.768l-49.246-23.045 43.869-31.723c1.203-.948 2.071-2.011 2.602-3.189.529-1.176.737-2.349.618-3.52-.249-2.457-1.516-4.722-3.792-6.795-2.28-2.073-4.589-2.992-6.928-2.754-1.171.119-2.402.509-3.693 1.172-1.293.663-2.653 1.54-4.077 2.629l-53.703 38.6c-1.32.962-2.258 2.209-2.812 3.742-.553 1.535-.747 3.12-.581 4.757.154 1.522.657 2.978 1.506 4.368.851 1.393 2.025 2.484 3.524 3.277l60.43 27.733c1.732.771 3.367 1.462 4.909 2.073 1.539.614 2.95.853 4.239.722 1.988-.202 3.838-1.48 5.549-3.843 1.711-2.359 2.424-4.943 2.139-7.751C1224.629 1116.534 1224.208 1115.305 1223.5 1114.136zM1312.291 980.145c-2.208-1.372-4.306-1.957-6.294-1.755-1.522.154-2.936.772-4.245 1.849-1.309 1.081-2.292 2.479-2.942 4.199l-56.457 153.05c-.559 1.474-.768 2.914-.625 4.317.261 2.572 1.527 4.571 3.799 5.997 2.272 1.424 4.4 2.036 6.392 1.834 1.637-.166 3.081-.787 4.332-1.858 1.249-1.074 2.201-2.47 2.855-4.189l56.28-153.033c.56-1.475.769-2.914.626-4.318C1315.739 983.549 1314.497 981.516 1312.291 980.145zM1417.756 1064.74c-.167-1.637-.674-3.15-1.524-4.543-.851-1.39-2.02-2.424-3.506-3.101l-60.431-27.733c-1.734-.769-3.369-1.459-4.908-2.073-1.542-.61-2.954-.853-4.24-.722-1.873.19-3.693 1.469-5.462 3.834-1.771 2.368-2.511 4.952-2.227 7.76.131 1.289.549 2.516 1.26 3.685.708 1.169 1.808 2.093 3.295 2.768l49.245 23.044-43.868 31.724c-1.205.951-2.076 1.983-2.61 3.102-.538 1.118-.74 2.321-.61 3.607.25 2.457 1.513 4.722 3.792 6.795 2.277 2.074 4.585 2.992 6.927 2.754 1.286-.13 2.542-.551 3.771-1.269 1.227-.714 2.56-1.558 3.998-2.533l53.703-38.599c1.321-.959 2.259-2.207 2.812-3.742C1417.729 1067.964 1417.922 1066.379 1417.756 1064.74z"></path>
                            </g>
                        </g>
                        <g>
                            <g>
                                <path fill="#bacdff" d="M3909.795,1531.035c-4.177,0-7.572-3.375-7.593-7.556c-0.021-4.194,3.362-7.61,7.557-7.631
								c11.675-0.057,23.208-1.263,34.279-3.583c4.104-0.858,8.129,1.769,8.99,5.875c0.859,4.104-1.771,8.129-5.875,8.99
								c-12.069,2.529-24.625,3.844-37.32,3.906C3909.822,1531.035,3909.808,1531.035,3909.795,1531.035z M3873.907,1527.868
								c-0.446,0-0.897-0.039-1.352-0.121c-12.146-2.183-24.268-5.462-36.03-9.747c-3.94-1.436-5.971-5.793-4.535-9.734
								c1.436-3.941,5.791-5.975,9.734-4.536c10.947,3.988,22.225,7.04,33.517,9.069c4.128,0.742,6.873,4.689,6.131,8.817
								C3880.711,1525.29,3877.512,1527.868,3873.907,1527.868z M3979.822,1516.154c-2.891,0-5.652-1.659-6.923-4.463
								c-1.729-3.82-0.034-8.32,3.786-10.049c10.495-4.752,20.373-10.671,29.356-17.593c3.324-2.562,8.092-1.941,10.65,1.38
								c2.56,3.322,1.941,8.09-1.381,10.65c-9.912,7.637-20.8,14.163-32.362,19.398
								C3981.933,1515.936,3980.869,1516.154,3979.822,1516.154z M3806.398,1503.379c-1.263,0-2.543-0.315-3.721-0.979
								c-10.745-6.055-21.137-13.048-30.888-20.787c-3.285-2.607-3.834-7.384-1.228-10.669c2.607-3.285,7.385-3.833,10.669-1.228
								c9.127,7.244,18.851,13.788,28.901,19.452c3.654,2.059,4.947,6.69,2.888,10.344
								C3811.625,1501.987,3809.049,1503.379,3806.398,1503.379z M4036.354,1472.483c-1.666,0-3.344-0.545-4.745-1.669
								c-3.271-2.624-3.798-7.402-1.175-10.675c7.115-8.875,13.187-18.639,18.043-29.021c1.776-3.8,6.299-5.438,10.096-3.66
								c3.799,1.777,5.438,6.297,3.66,10.096c-5.367,11.474-12.079,22.269-19.949,32.085
								C4040.784,1471.51,4038.579,1472.483,4036.354,1472.483z M3750.107,1458.732c-2.048,0-4.089-0.823-5.586-2.448
								c-8.441-9.16-16.183-19.009-23.009-29.273c-2.322-3.492-1.374-8.206,2.118-10.528c3.493-2.321,8.206-1.374,10.528,2.118
								c6.385,9.602,13.629,18.817,21.53,27.392c2.842,3.084,2.646,7.888-0.438,10.73
								C3753.792,1458.067,3751.947,1458.732,3750.107,1458.732z M4066.754,1407.807c-0.523,0-1.054-0.054-1.586-0.167
								c-4.103-0.872-6.722-4.904-5.85-9.006c2.34-11.014,3.526-22.528,3.526-34.22c0-6.55-0.374-13.202-1.11-19.772
								c-0.468-4.167,2.531-7.925,6.699-8.393c4.15-0.47,7.926,2.531,8.393,6.7c0.8,7.129,1.206,14.352,1.206,21.465
								c0,12.751-1.298,25.327-3.858,37.376C4073.416,1405.36,4070.263,1407.807,4066.754,1407.807z M3710.403,1398.871
								c-2.9,0-5.669-1.669-6.933-4.486c-5.154-11.485-9.283-23.356-12.271-35.282c-1.019-4.068,1.453-8.192,5.521-9.211
								c4.071-1.018,8.192,1.452,9.212,5.52c2.771,11.063,6.605,22.083,11.395,32.756c1.718,3.826,0.008,8.32-3.818,10.037
								C3712.498,1398.657,3711.441,1398.871,3710.403,1398.871z M3693.111,1329.264c-3.998,0-7.347-3.125-7.575-7.167
								c-0.2-3.569-0.303-7.187-0.303-10.754c0-9.04,0.654-18.039,1.945-26.747c0.615-4.149,4.489-7.01,8.625-6.398
								c4.148,0.615,7.013,4.477,6.398,8.625c-1.183,7.974-1.781,16.223-1.781,24.52c0,3.283,0.094,6.614,0.279,9.899
								c0.235,4.188-2.968,7.773-7.155,8.009C3693.4,1329.26,3693.254,1329.264,3693.111,1329.264z M4061.926,1316.142
								c-3.249,0-6.256-2.103-7.258-5.372c-3.344-10.916-7.728-21.74-13.029-32.172c-1.9-3.739-0.409-8.31,3.329-10.21
								c3.738-1.9,8.31-0.41,10.21,3.329c5.698,11.211,10.412,22.854,14.012,34.605c1.229,4.01-1.026,8.256-5.037,9.485
								C4063.413,1316.034,4062.663,1316.142,4061.926,1316.142z M3703.848,1258.512c-0.915,0-1.845-0.167-2.749-0.518
								c-3.909-1.519-5.846-5.919-4.327-9.829c4.596-11.824,10.558-23.047,17.722-33.359c2.393-3.445,7.126-4.296,10.568-1.904
								c3.444,2.393,4.297,7.125,1.904,10.569c-6.48,9.329-11.877,19.488-16.038,30.196
								C3709.76,1256.672,3706.889,1258.512,3703.848,1258.512z M4029.517,1252.073c-2.337,0-4.643-1.075-6.13-3.104
								c-6.832-9.319-14.485-18.202-22.748-26.402c-2.977-2.955-2.994-7.762-0.04-10.739c2.953-2.977,7.761-2.995,10.739-0.041
								c8.822,8.757,16.997,18.246,24.297,28.202c2.479,3.382,1.748,8.134-1.634,10.614
								C4032.648,1251.595,4031.076,1252.073,4029.517,1252.073z M3978.513,1201.444c-1.543,0-3.099-0.468-4.444-1.441
								c-9.446-6.832-19.454-12.927-29.744-18.114c-3.744-1.888-5.25-6.455-3.361-10.199c1.888-3.745,6.452-5.251,10.199-3.362
								c11.007,5.55,21.708,12.066,31.807,19.369c3.398,2.458,4.16,7.205,1.703,10.603
								C3983.187,1200.352,3980.867,1201.444,3978.513,1201.444z M3744.635,1199.858c-2.1,0-4.189-0.866-5.69-2.562
								c-2.778-3.141-2.485-7.94,0.655-10.719c9.39-8.308,19.824-15.548,31.016-21.521c3.701-1.974,8.3-0.576,10.274,3.124
								s0.576,8.3-3.124,10.274c-10.146,5.415-19.601,11.974-28.102,19.496C3748.219,1199.23,3746.423,1199.858,3744.635,1199.858z
								 M3914.35,1169.185c-0.745,0-1.503-0.111-2.253-0.344c-10.339-3.209-20.944-5.59-31.521-7.077
								c-0.797-0.112-1.596-0.219-2.393-0.321c-4.16-0.533-7.1-4.338-6.566-8.498c0.535-4.16,4.343-7.094,8.498-6.566
								c0.855,0.109,1.713,0.225,2.571,0.345c11.387,1.6,22.796,4.161,33.913,7.612c4.006,1.244,6.244,5.499,5.001,9.504
								C3920.589,1167.096,3917.589,1169.185,3914.35,1169.185z M3807.633,1166.079c-3.335,0-6.394-2.215-7.318-5.588
								c-1.109-4.044,1.271-8.222,5.315-9.331c11.92-3.268,24.391-5.316,37.065-6.087c4.179-0.256,7.786,2.933,8.04,7.119
								c0.255,4.186-2.932,7.786-7.118,8.041c-11.631,0.708-23.061,2.583-33.972,5.575
								C3808.974,1165.991,3808.298,1166.079,3807.633,1166.079z"></path>
                            </g>
                            <g>
                                <path fill="#bacdff"
                                      d="M3839.491 1368.775c-2.074.01-4.074.668-6.004 1.97-2.28 1.661-4.718 2.941-7.315 3.838-2.597.901-5.232 1.551-7.904 1.954-4.85.732-9.46.696-13.833-.112-4.374-.807-8.32-2.464-11.836-4.969-3.517-2.505-6.478-5.854-8.881-10.046-2.405-4.192-4.063-9.306-4.975-15.343-.777-5.146-.722-9.962.171-14.451.891-4.485 2.586-8.512 5.084-12.079 2.498-3.565 5.721-6.505 9.675-8.826 3.951-2.317 8.6-3.88 13.944-4.688 2.869-.434 5.66-.551 8.373-.354 2.711.199 5.338.663 7.878 1.391 2.228.677 4.34.764 6.34.257 1.997-.502 3.506-1.744 4.524-3.719 1.535-2.561 1.873-5.191 1.01-7.896-.864-2.702-2.681-4.503-5.447-5.403-3.947-1.325-8.072-2.17-12.379-2.533-4.306-.361-8.637-.214-12.99.444-7.72 1.166-14.646 3.555-20.782 7.163-6.136 3.611-11.249 8.129-15.339 13.553-4.09 5.427-6.961 11.554-8.61 18.382-1.651 6.831-1.901 14.054-.75 21.674 1.331 8.81 3.934 16.335 7.814 22.582 3.878 6.247 8.653 11.218 14.324 14.917 5.669 3.698 11.87 6.205 18.597 7.515 6.727 1.312 13.653 1.43 20.779.354 2.869-.434 5.656-1.082 8.36-1.946 2.702-.863 5.352-1.921 7.947-3.174 2.595-1.251 5.08-2.715 7.46-4.391 2.294-1.561 3.516-3.694 3.664-6.4.147-2.703-.954-5.145-3.307-7.32C3843.427 1369.548 3841.563 1368.766 3839.491 1368.775zM3927.539 1325.943c-1.815-1.294-3.91-1.763-6.285-1.403l-20.783 3.139-3.341-22.118c-.419-2.77-1.63-4.917-3.63-6.437-2.001-1.52-4.437-2.063-7.306-1.629-2.772.419-4.964 1.661-6.573 3.726-1.612 2.065-2.208 4.486-1.79 7.255l3.341 22.118-20.337 3.072c-2.375.359-4.243 1.4-5.602 3.124-1.359 1.724-1.859 3.772-1.5 6.147.358 2.376 1.448 4.237 3.271 5.58 1.821 1.345 3.922 1.836 6.297 1.478l20.337-3.072 2.938 19.447c.419 2.771 1.677 4.909 3.778 6.414 2.1 1.504 4.535 2.048 7.307 1.629 2.869-.434 5.061-1.677 6.573-3.726 1.513-2.052 2.06-4.461 1.641-7.233l-2.938-19.447 20.782-3.139c2.376-.359 4.239-1.423 5.591-3.198 1.351-1.772 1.849-3.847 1.49-6.222C3930.441 1329.073 3929.353 1327.24 3927.539 1325.943zM4016.601 1318.488c-.358-2.376-1.447-4.209-3.261-5.505-1.816-1.294-3.91-1.763-6.285-1.404l-20.784 3.139-3.341-22.118c-.418-2.77-1.629-4.917-3.628-6.437-2.002-1.52-4.438-2.063-7.308-1.629-2.771.419-4.964 1.661-6.573 3.726-1.611 2.065-2.207 4.485-1.789 7.255l3.341 22.118-20.337 3.072c-2.375.359-4.244 1.4-5.602 3.124-1.36 1.724-1.859 3.773-1.5 6.148.358 2.376 1.448 4.237 3.271 5.58 1.821 1.345 3.922 1.837 6.296 1.478l20.338-3.072 2.938 19.447c.418 2.771 1.676 4.909 3.777 6.415 2.1 1.504 4.535 2.048 7.307 1.629 2.869-.434 5.061-1.676 6.573-3.726 1.513-2.051 2.059-4.461 1.64-7.233l-2.938-19.447 20.783-3.139c2.375-.359 4.238-1.422 5.591-3.198C4016.462 1322.938 4016.96 1320.863 4016.601 1318.488z"></path>
                            </g>
                        </g>
                        <g>
                            <g>
                                <path fill="#d0ddff" d="M2877.704,786.813l-186.909,23.077c-15.943,1.969-31.137-7.322-36.65-22.411l-54.031-147.881
								c-7.621-20.858,6.152-43.38,28.191-46.102l186.909-23.077c15.943-1.969,31.137,7.322,36.65,22.411l54.031,147.881
								C2913.516,761.57,2899.743,784.092,2877.704,786.813z"></path>
                            </g>
                            <path fill="#fff" d="M2816.545,727.126c-0.403-1.945-1.375-3.619-2.915-5.021l-44.886-37.941l25.411-51.537
							c0.563-1.055,0.931-2.104,1.104-3.159c0.171-1.049,0.151-2.101-0.066-3.15c-0.434-2.096-1.608-3.804-3.523-5.129
							c-1.914-1.321-4.22-1.704-6.917-1.145c-2.697,0.559-4.816,2.404-6.354,5.535l-22.445,47.774l-41.198-34.823
							c-2.476-2.142-5.138-2.92-7.982-2.331c-2.549,0.528-4.579,1.85-6.094,3.958c-1.518,2.112-1.994,4.515-1.436,7.211
							c0.435,2.1,1.481,3.758,3.14,4.975l45.119,38.053l-25.869,51.471c-0.977,2.077-1.262,4.091-0.859,6.037
							c0.497,2.398,1.874,4.146,4.132,5.237c2.256,1.097,4.359,1.44,6.309,1.037c2.995-0.62,5.145-2.314,6.446-5.085l23.323-47.326
							l40.227,33.927c2.655,2.262,5.407,3.099,8.254,2.508c2.395-0.496,4.308-1.83,5.733-4S2817.073,729.675,2816.545,727.126z"></path>
                        </g>
                        <g>
                            <g>
                                <path fill="#bacdff"
                                      d="M1144.703 2773.571c-3.128 0-6.283-.078-9.398-.232-4.188-.207-7.417-3.771-7.209-7.959.207-4.188 3.785-7.442 7.959-7.209 2.866.142 5.77.213 8.63.213 8.721 0 17.384-.667 25.77-1.982 4.146-.647 8.029 2.182 8.679 6.325.65 4.143-2.182 8.028-6.325 8.679C1163.646 2772.842 1154.19 2773.571 1144.703 2773.571zM1100.041 2768.216c-.584 0-1.177-.068-1.771-.21-12.005-2.868-23.922-6.857-35.42-11.858-3.846-1.673-5.607-6.147-3.935-9.993s6.147-5.607 9.992-3.934c10.684 4.646 21.75 8.353 32.891 11.014 4.079.975 6.596 5.071 5.622 9.15C1106.588 2765.87 1103.475 2768.216 1100.041 2768.216zM1206.351 2762.036c-3.017 0-5.871-1.811-7.056-4.783-1.553-3.896.346-8.313 4.241-9.866 10.7-4.266 20.8-9.753 30.021-16.309 3.418-2.43 8.159-1.63 10.589 1.788s1.63 8.159-1.788 10.589c-10.205 7.256-21.374 13.325-33.196 18.039C1208.238 2761.862 1207.286 2762.036 1206.351 2762.036zM1034.164 2739.676c-1.422 0-2.86-.399-4.141-1.234-10.358-6.755-20.267-14.436-29.452-22.83-3.096-2.829-3.312-7.633-.483-10.729 2.83-3.095 7.633-3.312 10.728-.482 8.58 7.841 17.832 15.014 27.503 21.32 3.513 2.291 4.503 6.995 2.212 10.509C1039.075 2738.462 1036.644 2739.676 1034.164 2739.676zM1264.469 2720.58c-1.74 0-3.489-.595-4.918-1.812-3.194-2.718-3.579-7.511-.861-10.704 7.364-8.651 13.655-18.241 18.698-28.502 1.851-3.764 6.401-5.314 10.164-3.466 3.764 1.851 5.315 6.401 3.466 10.165-5.598 11.39-12.583 22.037-20.762 31.646C1268.753 2719.673 1266.618 2720.58 1264.469 2720.58zM981.152 2691.219c-2.245 0-4.467-.99-5.966-2.89-7.752-9.823-14.683-20.284-20.599-31.094-2.014-3.679-.664-8.293 3.016-10.307 3.678-2.016 8.293-.664 10.307 3.016 5.51 10.067 11.969 19.816 19.198 28.977 2.598 3.292 2.036 8.066-1.257 10.665C984.459 2690.686 982.799 2691.219 981.152 2691.219zM1296.078 2656.552c-.545 0-1.098-.06-1.651-.183-4.095-.908-6.678-4.963-5.77-9.058 2.433-10.969 3.667-22.452 3.667-34.131 0-2.013.783-3.842 2.061-5.2-1.358-1.279-2.25-3.058-2.373-5.067-.691-11.348-2.542-22.811-5.503-34.069-1.067-4.056 1.356-8.209 5.413-9.275 4.054-1.065 8.208 1.356 9.275 5.412 3.213 12.219 5.224 24.671 5.975 37.011.132 2.174-.664 4.19-2.046 5.662 1.469 1.385 2.387 3.349 2.387 5.527 0 12.783-1.355 25.373-4.027 37.42C1302.699 2654.141 1299.56 2656.552 1296.078 2656.552zM946.795 2628.193c-3.176 0-6.137-2.008-7.2-5.187-4.008-11.979-6.859-24.255-8.475-36.487-.549-4.157 2.376-7.974 6.534-8.522 4.157-.555 7.973 2.377 8.522 6.534 1.489 11.272 4.12 22.596 7.821 33.657 1.331 3.977-.814 8.279-4.792 9.61C948.406 2628.066 947.594 2628.193 946.795 2628.193zM937.576 2557.141c-.188 0-.377-.007-.568-.021-4.183-.31-7.322-3.951-7.013-8.133.942-12.742 3.278-25.207 6.943-37.048 1.239-4.006 5.494-6.25 9.499-5.009 4.006 1.24 6.249 5.493 5.009 9.499-3.326 10.747-5.447 22.077-6.305 33.677C944.846 2554.099 941.516 2557.141 937.576 2557.141zM1281.521 2540.671c-2.851 0-5.583-1.613-6.876-4.363-4.875-10.362-10.74-20.47-17.433-30.041-2.403-3.437-1.565-8.171 1.872-10.574 3.437-2.405 8.171-1.566 10.575 1.871 7.187 10.277 13.488 21.138 18.729 32.279 1.785 3.795.156 8.318-3.639 10.104C1283.704 2540.438 1282.604 2540.671 1281.521 2540.671zM958.886 2488.938c-1.337 0-2.691-.354-3.919-1.096-3.59-2.168-4.741-6.836-2.573-10.426 6.546-10.834 14.435-20.831 23.446-29.714 2.988-2.943 7.795-2.909 10.739.078 2.944 2.986 2.909 7.794-.078 10.738-8.113 7.996-15.215 16.997-21.108 26.751C963.966 2487.631 961.458 2488.938 958.886 2488.938zM1240.437 2481.771c-1.974 0-3.945-.765-5.433-2.288-8.105-8.299-16.937-15.988-26.249-22.855-3.375-2.488-4.094-7.242-1.605-10.618s7.243-4.096 10.619-1.604c9.97 7.352 19.424 15.583 28.101 24.467 2.93 3 2.874 7.808-.127 10.738C1244.265 2481.052 1242.351 2481.771 1240.437 2481.771zM1182.601 2439.181c-1.157 0-2.331-.265-3.433-.824-10.395-5.279-21.222-9.659-32.18-13.016-4.01-1.229-6.265-5.476-5.037-9.485 1.229-4.01 5.477-6.263 9.485-5.036 11.792 3.612 23.436 8.321 34.608 13.996 3.739 1.899 5.231 6.47 3.332 10.209C1188.038 2437.662 1185.369 2439.181 1182.601 2439.181zM1009.692 2438.813c-2.6 0-5.132-1.336-6.548-3.737-2.131-3.612-.93-8.268 2.683-10.398 10.757-6.344 22.381-11.462 34.549-15.211 4.01-1.235 8.258 1.014 9.493 5.021 1.235 4.009-1.013 8.259-5.021 9.493-11.036 3.4-21.568 8.036-31.305 13.779C1012.331 2438.473 1011.003 2438.813 1009.692 2438.813zM1113.969 2418.259c-.293 0-.589-.018-.887-.052-11.637-1.354-23.275-1.579-34.504-.662-4.18.346-7.845-2.771-8.186-6.95-.341-4.181 2.771-7.846 6.951-8.187 12.22-.998 24.871-.757 37.496.713 4.166.485 7.15 4.256 6.665 8.421C1121.052 2415.409 1117.77 2418.258 1113.969 2418.259z"></path>
                            </g>
                            <g>
                                <path fill="#bacdff"
                                      d="M1099.097 2686.309c-4.151.856-8.637.401-12.838.004-3.71-.35-7.414-.936-11-1.965-7.058-2.025-13.672-6.004-17.826-12.176-5.979-8.883-7.241-19.448-9.145-29.708-.633-3.412-1.138-6.886-2.016-10.247-1.933-7.393-6.292-14.487-14.274-16.158-2.162-.453-4.391-.511-6.583-.266-1.636.183-3.212.662-4.875.551-3.792-.253-7.109-2.873-8.258-6.475-1.198-3.757-.248-7.792 2.788-10.387 2.435-2.081 5.748-2.169 8.59-3.422 3.451-1.521 6.555-3.922 8.43-7.238 1.87-3.305 2.567-7.132 2.484-10.897-.094-4.257-1.173-8.359-2.107-12.484-2.268-10.012-5.616-20.488-4.209-30.844 1.151-8.469 5.88-15.407 12.409-20.721 2.965-2.413 6.223-4.443 9.593-6.239 1.949-1.039 3.94-1.999 5.956-2.901 1.979-.885 3.985-1.77 6.174-1.94 3.703-.288 6.954 2.058 8.457 5.374 1.75 3.859.479 7.885-2.696 10.564-1.643 1.386-3.642 2.355-5.414 3.569-1.614 1.105-3.18 2.288-4.633 3.599-2.8 2.528-5.13 5.64-6.065 9.349-1.316 5.223-.138 10.884 1.027 16.038.977 4.318 1.953 8.636 2.93 12.955.874 3.865 1.891 7.714 2.143 11.684.24 3.78-.143 7.636-1.535 11.181-1.319 3.36-3.534 6.377-6.041 8.948-2.741 2.812-5.955 5.133-9.371 7.056-.056-.271-.112-.543-.168-.814 9.714 1.041 19.643 5.086 24.461 14.069 2.828 5.273 3.642 11.178 4.721 16.975.868 4.665 1.687 9.342 2.604 13.997.914 4.64 2.37 9.843 5.588 13.45 3.25 3.644 7.991 5.405 12.595 6.618 4.682 1.234 11.115 1.134 13.767 5.963C1107.461 2678.294 1104.73 2685.15 1099.097 2686.309zM1178.491 2669.742c-2.393.493-4.655-.193-6.38-1.915-1.659-1.657-3.17-3.797-3.556-6.153-.428-2.61.615-5.05 2.38-6.942 1.783-1.912 4.237-3.025 6.385-4.463 3.897-2.608 7.708-5.72 9.743-10.054 2.24-4.77 1.732-10.39.832-15.431-.821-4.599-2.018-9.149-3.048-13.705-1.192-5.27-2.751-10.629-2.865-16.061-.111-5.318 1.261-10.262 4.344-14.61 3.285-4.631 7.766-8.277 12.672-11.079.056.271.112.543.168.814-7.476-.983-15.659-3.617-20.971-9.25-3.963-4.202-5.984-9.824-7.024-15.414-.761-4.092-1.522-8.183-2.283-12.274-.637-3.424-1.166-6.89-1.995-10.275-.905-3.694-2.129-7.638-4.538-10.653-2.271-2.842-5.471-4.759-8.842-6.019-1.835-.686-3.729-1.209-5.638-1.642-2.075-.47-4.214-.684-6.271-1.22-3.017-.786-5.683-2.562-6.736-5.606-1.266-3.66-.029-8.041 3.153-10.335 3.31-2.386 8.092-1.833 11.923-1.678 7.582.307 15.281 1.471 22.06 5.057 3.393 1.795 6.499 4.147 8.982 7.087 2.501 2.961 4.382 6.478 5.827 10.06 1.759 4.358 2.652 8.87 3.504 13.457.837 4.508 1.674 9.016 2.511 13.524.891 4.797 1.95 9.637 4.641 13.796 2.04 3.152 4.97 5.756 8.555 6.978 2.092.713 4.311 1.048 6.519 1.036 1.736-.009 3.367-.359 5.068-.596 3.887-.542 7.916 1.41 9.706 4.942 1.792 3.535 1.425 7.825-1.188 10.84-1.189 1.372-2.746 2.353-4.486 2.863-1.272.373-2.572.551-3.835.977-3.64 1.229-6.936 3.518-9.082 6.737-3.797 5.696-3.63 12.861-2.173 19.292 1.638 7.23 3.562 14.45 4.875 21.747 1.576 8.763 1.378 17.986-3.459 25.738-4.258 6.825-11.04 11.764-18.04 15.494-1.894 1.009-3.826 1.944-5.783 2.823C1182.296 2668.459 1180.486 2669.331 1178.491 2669.742z"></path>
                            </g>
                        </g>
                    </g>
                    <g>
                        <g>
                            <g>
                                <path fill="#ffdd96" d="M3598.566,1427.268l-568.648,66.133c-11.453,1.332-22.4-5.098-26.813-15.751l-168.608-406.976
								c-6.555-15.821,3.842-33.52,20.853-35.499l568.648-66.133c11.453-1.332,22.4,5.098,26.813,15.751l168.608,406.976
								C3625.974,1407.59,3615.577,1425.289,3598.566,1427.268z"></path>
                            </g>
                            <path fill="#ffd680" d="M3450.812,984.794c-4.413-10.653-15.36-17.083-26.813-15.751l-568.648,66.132
							c-17.01,1.978-27.407,19.677-20.853,35.499l12.147,29.32l620.14-76.647L3450.812,984.794z"></path>
                        </g>
                        <path fill="#fff" d="M3498.837,1775.927l-260.136-614.585c-5.823-13.76-19.72-21.969-34.58-20.417l-896.396,93.315
						c-10.638,1.107-19.903,6.997-25.421,16.159c-5.519,9.162-6.392,20.106-2.396,30.027l255.418,634.182
						c5.189,12.883,17.689,21.146,31.307,21.146c1.391,0,2.795-0.086,4.202-0.263l901.111-112.913
						c10.589-1.326,19.72-7.39,25.049-16.636C3502.326,1796.696,3502.997,1785.756,3498.837,1775.927z M3488.772,1801.203
						c-3.831,6.646-10.394,11.005-18.005,11.958l-901.111,112.913c-10.913,1.364-21.414-4.805-25.524-15.011l-255.418-634.182
						c-2.872-7.131-2.244-14.999,1.722-21.584s10.626-10.819,18.272-11.615l896.396-93.315c0.863-0.09,1.72-0.134,2.571-0.134
						c9.686,0,18.438,5.718,22.286,14.81l260.134,614.585C3493.085,1786.692,3492.603,1794.556,3488.772,1801.203z"></path>
                        <g>
                            <g>
                                <g>
                                    <path fill="#d0ddff" d="M3581.464,1871.025l-901.111,112.912c-13.066,1.637-25.597-5.732-30.516-17.947
									l-255.418-634.182c-7.204-17.888,4.726-37.695,23.906-39.692l896.396-93.316c12.687-1.321,24.748,5.8,29.719,17.546
									l260.134,614.586C3612.073,1848.653,3600.558,1868.633,3581.464,1871.025z"></path>
                                </g>
                                <path fill="#bacdff" d="M3344.439,1216.347c-4.972-11.746-17.032-18.867-29.719-17.546l-896.396,93.316
								c-19.18,1.997-31.11,21.804-23.906,39.692l19.664,48.824l956.171-103.298L3344.439,1216.347z"></path>
                                <path fill="#c2d3f9" d="M3604.573,1830.932l-103.56-244.668l-403.788,46.959c-17.328,2.015-27.701,20.289-20.55,36.2
								l112.692,250.732l392.097-49.131C3600.558,1868.633,3612.074,1848.653,3604.573,1830.932z"></path>
                                <g>
                                    <path fill="#bacdff" d="M2770.884,1567.771c-11.872-14.872-35.557-37.536-72.51-42.883
									c7.216-8.687,10.868-20.44,9.278-33.39c-3.283-26.736-27.617-48.409-54.353-48.409s-45.748,21.674-42.465,48.409
									c2.113,17.211,12.957,32.313,27.543,40.897c-30.017,13.914-39.558,41.508-42.585,57.548
									c-1.167,6.182,3.977,11.724,10.228,11.012l158.629-18.085C2771.943,1582.039,2775.465,1573.509,2770.884,1567.771z"></path>
                                    <g>
                                        <path fill="#bacdff" d="M2846.202,1431.936l487.006-55.774c4.838-0.554,9.458,2.163,11.325,6.661l53.937,129.94
										c2.782,6.702-1.628,14.203-8.837,15.031l-485.773,55.789c-4.807,0.552-9.404-2.126-11.294-6.58l-55.169-129.955
										C2834.544,1440.334,2838.955,1432.766,2846.202,1431.936z"></path>
                                        <g>
                                            <path fill="#bacdff"
                                                  d="M2600.727 1663.404l419.867-48.945c2.604-.304 5.092 1.167 6.081 3.595l16.326 40.074c1.452 3.563-.881 7.531-4.701 7.996l-421.07 51.193c-2.708.329-5.282-1.261-6.2-3.83l-15.123-42.322C2594.643 1667.63 2596.998 1663.839 2600.727 1663.404zM2632.05 1743.136l419.867-48.945c2.604-.304 5.092 1.167 6.081 3.595l16.326 40.074c1.452 3.563-.881 7.532-4.701 7.996l-421.07 51.193c-2.708.329-5.283-1.261-6.201-3.83l-15.123-42.322C2625.967 1747.362 2628.321 1743.571 2632.05 1743.136zM2663.374 1822.869l419.867-48.945c2.604-.304 5.092 1.167 6.081 3.595l16.326 40.074c1.452 3.563-.881 7.531-4.701 7.996l-421.07 51.193c-2.708.329-5.283-1.261-6.2-3.83l-15.123-42.322C2657.29 1827.095 2659.645 1823.304 2663.374 1822.869z"></path>
                                        </g>
                                    </g>
                                </g>
                            </g>
                            <g>
                                <ellipse cx="2471.043" cy="1323.7" fill="#ef5e8e" rx="106.262" ry="122.851"
                                         transform="rotate(-48.479 2471.018 1323.718)"></ellipse>
                                <path fill="#fff" d="M2500.11,1264.481c-9.754,31.585-16.306,64.036-19.703,96.897
								c-15.562-13.721-29.76-28.964-46.644-41.153c-4.96-3.581-9.703,4.65-4.791,8.196c18.765,13.547,34.052,31.178,51.921,45.803
								c3.273,2.678,7.741,0.906,8.102-3.356c2.986-35.262,9.826-70.054,20.267-103.864
								C2511.07,1261.154,2501.91,1258.652,2500.11,1264.481z"></path>
                            </g>
                        </g>
                        <g>
                            <g>
                                <path fill="#ffe5e1" d="M3938.781,2053.014l-579.963,67.448c-11.173,1.299-21.899-4.79-26.51-15.049l-184.436-410.358
								c-7.151-15.911,3.222-34.185,20.55-36.2l579.963-67.448c11.173-1.299,21.899,4.79,26.51,15.049l184.436,410.358
								C3966.483,2032.725,3956.109,2050.999,3938.781,2053.014z"></path>
                            </g>
                            <path fill="#ffdbd4" d="M3774.896,1606.455c-4.611-10.259-15.338-16.348-26.51-15.049l-579.963,67.449
							c-17.328,2.015-27.701,20.289-20.55,36.2l15.763,35.072l632.995-75.314L3774.896,1606.455z"></path>
                            <g>
                                <path fill="#ffdbd4" d="M3582.385,2052.2l-208.502,24.248c-4.017,0.467-7.873-1.722-9.531-5.41l-136.012-303.316
								c-2.571-5.72,1.158-12.29,7.388-13.014l208.502-24.248c4.017-0.467,7.873,1.722,9.531,5.41l136.012,303.316
								C3592.344,2044.906,3588.614,2051.476,3582.385,2052.2z"></path>
                            </g>
                            <g>
                                <path fill="#fcd0ca" d="M3648.652,2045.1l-79.548,9.251c-1.532,0.178-3.004-0.657-3.636-2.064l-100.55-230.042
								c-0.981-2.182,0.442-4.689,2.819-4.965l79.548-9.251c1.532-0.178,3.004,0.657,3.636,2.064l100.55,230.042
								C3652.451,2042.317,3651.029,2044.824,3648.652,2045.1z"></path>
                            </g>
                            <g>
                                <path fill="#ffdbd4" d="M3803.371,2025.167l-79.548,9.251c-1.532,0.178-3.004-0.657-3.636-2.064l-57.429-131.456
								c-0.981-2.182,0.442-4.689,2.819-4.965l79.548-9.251c1.532-0.178,3.004,0.657,3.636,2.064l57.429,131.456
								C3807.171,2022.384,3805.748,2024.891,3803.371,2025.167z"></path>
                            </g>
                            <g>
                                <path fill="#fff" d="M3646.061,1990.851c-4.41,0-8.897-0.315-13.438-0.954c-50.453-7.09-91.5-52.863-91.5-102.035
								c0-23.576,9.297-44.641,26.177-59.314c17.742-15.422,41.506-21.948,66.909-18.379c50.452,7.09,91.499,52.863,91.499,102.035
								c0,23.576-9.297,44.641-26.177,59.314C3684.961,1984.185,3666.329,1990.851,3646.061,1990.851z M3620.816,1820.61
								c-17.537,0-33.578,5.7-46.043,16.535c-14.354,12.478-22.259,30.49-22.259,50.718c0,43.712,36.648,84.425,81.695,90.755
								c22.089,3.104,42.634-2.47,57.85-15.696c14.354-12.478,22.259-30.49,22.259-50.718c0-43.712-36.647-84.425-81.694-90.755
								C3628.63,1820.888,3624.687,1820.61,3620.816,1820.61z"></path>
                            </g>
                            <g>
                                <path fill="#fff" d="M3638.727,1941.39c-2.005,0-4.042-0.143-6.104-0.433c-22.706-3.191-41.18-23.836-41.18-46.021
								c0-10.849,4.299-20.561,12.104-27.346c8.166-7.1,19.055-10.113,30.661-8.479c22.706,3.191,41.18,23.836,41.18,46.021
								c0,10.849-4.299,20.561-12.104,27.346C3656.569,1938.316,3648.01,1941.39,3638.727,1941.39z M3628.15,1870.072
								c-6.553,0-12.52,2.107-17.129,6.114c-5.279,4.589-8.187,11.248-8.187,18.75c0,16.725,14.074,32.311,31.375,34.742
								c8.29,1.165,15.963-0.893,21.603-5.796c5.279-4.589,8.187-11.248,8.187-18.75c0-16.725-14.074-32.311-31.375-34.742
								C3631.109,1870.177,3629.615,1870.072,3628.15,1870.072z"></path>
                            </g>
                        </g>
                    </g>
                    <g>
                        <g>
                            <g>
                                <g>
                                    <path fill="#ffe5e1" d="M2089.526,2782.67l-620.693,99.775c-12.77,2.053-25.128-5.515-29.104-17.822
									l-172.085-532.648c-5.017-15.528,5.222-31.817,21.389-34.03l622.508-85.195c12.535-1.716,24.507,5.767,28.457,17.786
									l170.27,518.068C2115.302,2763.923,2105.445,2780.112,2089.526,2782.67z"></path>
                                </g>
                                <path fill="#ffdbd4" d="M1939.998,2230.537c-3.95-12.019-15.922-19.502-28.457-17.787l-622.508,85.196
								c-16.168,2.213-26.406,18.501-21.389,34.03l20.833,64.482l674.467-96.107L1939.998,2230.537z"></path>
                            </g>
                            <g>
                                <path fill="#ffd2cc"
                                      d="M1486.655 2587.135c-2.005 0-3.682-1.571-3.788-3.598-.11-2.095 1.499-3.881 3.592-3.991 6.293-.33 12.389-1.508 18.118-3.502 1.982-.688 4.145.357 4.834 2.338s-.357 4.145-2.338 4.834c-6.406 2.229-13.207 3.546-20.215 3.914C1486.79 2587.133 1486.723 2587.135 1486.655 2587.135zM1467.168 2585.677c-.246 0-.495-.024-.745-.074-6.619-1.317-13.156-3.426-19.431-6.268-1.91-.865-2.757-3.115-1.892-5.025.865-1.91 3.113-2.754 5.025-1.893 5.748 2.604 11.729 4.534 17.781 5.738 2.057.409 3.392 2.408 2.982 4.465C1470.529 2584.427 1468.943 2585.677 1467.168 2585.677zM1523.063 2574.285c-1.154 0-2.293-.523-3.039-1.518-1.259-1.677-.92-4.057.756-5.315 4.929-3.7 9.193-8.133 12.675-13.174 1.191-1.725 3.557-2.157 5.282-.966 1.726 1.191 2.158 3.557.966 5.282-3.947 5.714-8.78 10.737-14.363 14.93C1524.657 2574.037 1523.857 2574.285 1523.063 2574.285zM1431.722 2569.717c-.79 0-1.586-.245-2.268-.754-5.441-4.06-10.471-8.709-14.949-13.818-1.382-1.577-1.224-3.977.353-5.358 1.578-1.383 3.977-1.224 5.358.353 4.128 4.71 8.764 8.996 13.779 12.738 1.681 1.254 2.026 3.633.772 5.313C1434.023 2569.19 1432.879 2569.717 1431.722 2569.717zM1544.97 2542.625c-.356 0-.719-.051-1.079-.157-2.011-.595-3.158-2.707-2.563-4.718 1.711-5.782 2.579-11.921 2.579-18.247 0-.668-.01-1.336-.029-2.003-.06-2.097 1.591-3.844 3.688-3.903 2.086-.081 3.844 1.591 3.903 3.687.021.739.032 1.479.032 2.22 0 7.056-.973 13.92-2.891 20.401C1548.12 2541.556 1546.608 2542.625 1544.97 2542.625zM1406.117 2540.438c-1.339 0-2.637-.71-3.329-1.965-3.343-6.067-5.95-12.428-7.746-18.906-.561-2.021.624-4.113 2.644-4.674 2.018-.558 4.113.623 4.673 2.645 1.639 5.909 4.021 11.72 7.079 17.27 1.012 1.837.344 4.146-1.493 5.158C1407.365 2540.285 1406.737 2540.438 1406.117 2540.438zM1395.893 2503.019c-2.072 0-3.767-1.665-3.795-3.744-.005-.367-.008-.734-.008-1.103 0-6.669.869-13.172 2.583-19.332.562-2.021 2.656-3.204 4.675-2.641 2.02.563 3.202 2.655 2.64 4.676-1.529 5.497-2.304 11.315-2.304 17.292 0 .33.003.666.007 1.002.029 2.097-1.647 3.82-3.744 3.85C1395.929 2503.019 1395.911 2503.019 1395.893 2503.019zM1544.599 2501.903c-1.645 0-3.16-1.077-3.644-2.735-1.717-5.891-4.172-11.672-7.297-17.186-1.034-1.824-.393-4.142 1.431-5.175 1.824-1.037 4.141-.395 5.175 1.431 3.415 6.024 6.1 12.351 7.98 18.805.587 2.014-.569 4.121-2.583 4.708C1545.308 2501.853 1544.95 2501.903 1544.599 2501.903zM1525.53 2468.036c-1.042 0-2.078-.426-2.828-1.262-4.183-4.665-8.867-8.898-13.922-12.582-1.695-1.234-2.067-3.609-.833-5.305 1.235-1.694 3.61-2.068 5.304-.832 5.485 3.996 10.566 8.589 15.104 13.648 1.4 1.562 1.27 3.962-.292 5.362C1527.339 2467.716 1526.433 2468.036 1525.53 2468.036zM1406.415 2465.904c-.723 0-1.453-.205-2.1-.636-1.746-1.161-2.22-3.519-1.058-5.265 3.851-5.787 8.595-10.894 14.103-15.178 1.654-1.288 4.04-.988 5.328.666 1.287 1.655.989 4.041-.666 5.328-4.86 3.78-9.047 8.285-12.443 13.391C1408.848 2465.309 1407.643 2465.904 1406.415 2465.904zM1494.066 2445.162c-.509 0-1.026-.104-1.523-.32-5.775-2.533-11.78-4.389-17.847-5.518-2.062-.383-3.422-2.365-3.039-4.427.383-2.061 2.368-3.421 4.427-3.038 6.639 1.234 13.202 3.262 19.509 6.027 1.92.843 2.794 3.082 1.952 5.002C1496.92 2444.314 1495.527 2445.162 1494.066 2445.162zM1436.771 2442.193c-1.548 0-3.002-.954-3.566-2.492-.721-1.97.291-4.15 2.26-4.871 6.37-2.332 13.152-3.753 20.159-4.223 2.095-.141 3.902 1.441 4.042 3.534.141 2.092-1.442 3.902-3.534 4.042-6.287.422-12.362 1.692-18.055 3.777C1437.646 2442.117 1437.205 2442.193 1436.771 2442.193zM1689.542 2556.427c-2.005 0-3.682-1.571-3.788-3.598-.11-2.094 1.498-3.881 3.592-3.991 6.297-.331 12.393-1.509 18.119-3.502 1.982-.687 4.145.357 4.834 2.338s-.357 4.145-2.338 4.834c-6.402 2.228-13.204 3.545-20.215 3.914C1689.678 2556.425 1689.61 2556.427 1689.542 2556.427zM1670.056 2554.969c-.246 0-.495-.024-.745-.074-6.619-1.317-13.156-3.426-19.431-6.268-1.91-.865-2.757-3.115-1.892-5.025.865-1.91 3.114-2.754 5.025-1.893 5.748 2.604 11.729 4.534 17.781 5.738 2.057.409 3.392 2.408 2.982 4.465C1673.416 2553.719 1671.83 2554.969 1670.056 2554.969zM1725.951 2543.577c-1.154 0-2.293-.523-3.04-1.518-1.259-1.677-.92-4.057.757-5.315 4.929-3.7 9.193-8.132 12.675-13.173 1.192-1.725 3.556-2.158 5.282-.966 1.726 1.191 2.158 3.557.966 5.282-3.947 5.715-8.78 10.737-14.364 14.929C1727.544 2543.329 1726.744 2543.577 1725.951 2543.577zM1634.61 2539.009c-.79 0-1.586-.245-2.268-.754-5.44-4.06-10.47-8.709-14.949-13.818-1.382-1.577-1.224-3.977.353-5.358 1.578-1.383 3.976-1.225 5.358.353 4.128 4.711 8.764 8.996 13.779 12.738 1.681 1.254 2.026 3.633.772 5.313C1636.911 2538.482 1635.767 2539.009 1634.61 2539.009zM1747.858 2511.918c-.357 0-.719-.051-1.079-.157-2.011-.595-3.158-2.707-2.563-4.718 1.711-5.782 2.579-11.921 2.579-18.247 0-.669-.01-1.336-.029-2.002-.06-2.097 1.591-3.844 3.687-3.903 2.103-.045 3.844 1.591 3.904 3.687.021.738.032 1.478.032 2.219 0 7.056-.973 13.92-2.891 20.401C1751.009 2510.849 1749.497 2511.918 1747.858 2511.918zM1609.005 2509.73c-1.339 0-2.637-.71-3.329-1.965-3.343-6.066-5.949-12.427-7.746-18.906-.561-2.021.624-4.113 2.644-4.674 2.019-.561 4.113.623 4.673 2.645 1.639 5.91 4.021 11.721 7.079 17.27 1.012 1.837.344 4.146-1.493 5.158C1610.253 2509.577 1609.625 2509.73 1609.005 2509.73zM1598.782 2472.311c-2.072 0-3.767-1.665-3.795-3.744-.005-.367-.008-.734-.008-1.103 0-6.667.869-13.17 2.583-19.334.562-2.02 2.652-3.206 4.675-2.641 2.021.562 3.203 2.655 2.641 4.676-1.53 5.5-2.305 11.319-2.305 17.294 0 .33.003.666.007 1.002.029 2.097-1.647 3.82-3.744 3.85C1598.817 2472.311 1598.799 2472.311 1598.782 2472.311zM1747.487 2471.198c-1.645 0-3.16-1.077-3.643-2.735-1.717-5.89-4.171-11.672-7.296-17.186-1.034-1.824-.393-4.142 1.431-5.175 1.825-1.037 4.142-.395 5.175 1.431 3.415 6.024 6.099 12.352 7.98 18.805.587 2.014-.569 4.121-2.583 4.708C1748.197 2471.148 1747.839 2471.198 1747.487 2471.198zM1728.42 2437.329c-1.042 0-2.078-.426-2.828-1.262-4.183-4.665-8.867-8.898-13.922-12.582-1.695-1.234-2.067-3.609-.833-5.305 1.235-1.694 3.61-2.068 5.304-.832 5.485 3.996 10.566 8.589 15.104 13.648 1.4 1.562 1.27 3.962-.292 5.362C1730.229 2437.009 1729.323 2437.329 1728.42 2437.329zM1609.304 2435.195c-.723 0-1.453-.205-2.1-.636-1.746-1.161-2.22-3.519-1.058-5.265 3.851-5.787 8.596-10.894 14.104-15.178 1.654-1.288 4.04-.989 5.328.666 1.287 1.655.989 4.041-.666 5.328-4.861 3.78-9.047 8.285-12.443 13.391C1611.737 2434.6 1610.532 2435.195 1609.304 2435.195zM1696.956 2414.455c-.509 0-1.026-.104-1.523-.32-5.775-2.533-11.78-4.389-17.847-5.518-2.062-.383-3.422-2.365-3.039-4.427.384-2.061 2.367-3.425 4.427-3.038 6.638 1.233 13.202 3.262 19.509 6.027 1.92.843 2.794 3.082 1.952 5.002C1699.811 2413.607 1698.417 2414.455 1696.956 2414.455zM1639.662 2411.485c-1.548 0-3.002-.954-3.566-2.492-.721-1.97.291-4.15 2.26-4.871 6.37-2.332 13.153-3.753 20.159-4.223 2.09-.133 3.902 1.442 4.042 3.534.141 2.092-1.442 3.902-3.534 4.042-6.288.422-12.362 1.692-18.056 3.777C1640.536 2411.409 1640.095 2411.485 1639.662 2411.485zM1903.4 2529.01c-2.005 0-3.682-1.571-3.788-3.598-.11-2.095 1.499-3.881 3.592-3.991 6.294-.33 12.39-1.509 18.117-3.503 1.98-.689 4.145.357 4.834 2.338.69 1.979-.357 4.145-2.337 4.834-6.405 2.229-13.207 3.547-20.216 3.915C1903.535 2529.008 1903.467 2529.01 1903.4 2529.01zM1883.913 2527.552c-.246 0-.495-.024-.745-.074-6.619-1.317-13.156-3.426-19.431-6.268-1.91-.865-2.757-3.115-1.892-5.025s3.114-2.755 5.025-1.893c5.748 2.604 11.729 4.534 17.781 5.738 2.057.409 3.392 2.408 2.982 4.465C1887.273 2526.302 1885.688 2527.552 1883.913 2527.552zM1939.808 2516.16c-1.154 0-2.293-.523-3.039-1.518-1.259-1.677-.92-4.057.756-5.315 4.929-3.7 9.193-8.133 12.675-13.174 1.192-1.725 3.556-2.158 5.282-.966 1.726 1.191 2.158 3.557.966 5.282-3.947 5.714-8.78 10.737-14.363 14.93C1941.401 2515.912 1940.602 2516.16 1939.808 2516.16zM1848.467 2511.592c-.79 0-1.586-.245-2.268-.754-5.441-4.06-10.471-8.709-14.949-13.818-1.382-1.577-1.224-3.977.353-5.358 1.578-1.383 3.976-1.224 5.358.353 4.128 4.71 8.764 8.996 13.779 12.738 1.681 1.254 2.026 3.633.772 5.313C1850.768 2511.065 1849.624 2511.592 1848.467 2511.592zM1961.714 2484.5c-.356 0-.719-.051-1.079-.157-2.011-.595-3.158-2.707-2.563-4.718 1.711-5.782 2.579-11.921 2.579-18.247 0-.669-.01-1.337-.029-2.004-.06-2.097 1.591-3.844 3.688-3.903 2.096-.071 3.844 1.591 3.903 3.687.021.739.032 1.479.032 2.221 0 7.056-.973 13.92-2.891 20.401C1964.865 2483.431 1963.353 2484.5 1961.714 2484.5zM1822.861 2482.313c-1.339 0-2.637-.71-3.329-1.965-3.343-6.067-5.95-12.428-7.746-18.906-.561-2.021.624-4.113 2.644-4.674 2.023-.557 4.113.624 4.673 2.645 1.639 5.909 4.021 11.72 7.079 17.27 1.012 1.837.344 4.146-1.493 5.158C1824.109 2482.16 1823.481 2482.313 1822.861 2482.313zM1812.638 2444.894c-2.072 0-3.767-1.665-3.795-3.744-.005-.367-.008-.734-.008-1.103 0-6.669.869-13.172 2.583-19.332.561-2.021 2.653-3.204 4.675-2.641 2.02.563 3.202 2.655 2.64 4.676-1.529 5.497-2.304 11.315-2.304 17.292 0 .33.003.666.007 1.002.029 2.097-1.647 3.82-3.744 3.85C1812.673 2444.894 1812.655 2444.894 1812.638 2444.894zM1961.342 2443.778c-1.645 0-3.16-1.077-3.643-2.735-1.717-5.891-4.172-11.672-7.297-17.186-1.034-1.824-.393-4.142 1.431-5.175 1.823-1.036 4.141-.394 5.175 1.431 3.415 6.024 6.1 12.351 7.98 18.805.587 2.014-.569 4.121-2.583 4.708C1962.052 2443.728 1961.694 2443.778 1961.342 2443.778zM1942.275 2409.911c-1.042 0-2.078-.426-2.828-1.262-4.183-4.665-8.867-8.898-13.922-12.582-1.695-1.234-2.067-3.609-.833-5.305 1.235-1.694 3.61-2.068 5.304-.832 5.485 3.996 10.566 8.589 15.104 13.648 1.4 1.562 1.27 3.962-.292 5.362C1944.083 2409.591 1943.177 2409.911 1942.275 2409.911zM1823.16 2407.779c-.723 0-1.453-.205-2.1-.636-1.746-1.161-2.22-3.519-1.058-5.265 3.851-5.787 8.595-10.894 14.103-15.178 1.654-1.288 4.04-.988 5.328.666 1.287 1.655.989 4.041-.666 5.328-4.86 3.78-9.047 8.285-12.443 13.391C1825.593 2407.184 1824.388 2407.779 1823.16 2407.779zM1910.811 2387.037c-.509 0-1.026-.104-1.523-.32-5.775-2.533-11.78-4.389-17.847-5.518-2.062-.383-3.422-2.365-3.039-4.427.383-2.061 2.368-3.424 4.427-3.038 6.639 1.234 13.202 3.262 19.509 6.027 1.92.843 2.794 3.082 1.952 5.002C1913.665 2386.189 1912.272 2387.037 1910.811 2387.037zM1853.516 2384.068c-1.548 0-3.002-.954-3.566-2.492-.721-1.97.291-4.15 2.26-4.871 6.37-2.332 13.152-3.753 20.159-4.223 2.091-.135 3.902 1.442 4.042 3.534.141 2.092-1.442 3.902-3.534 4.042-6.287.422-12.362 1.692-18.055 3.777C1854.39 2383.992 1853.949 2384.068 1853.516 2384.068zM1451.218 2698.879c-4.594 0-8.632-3.342-9.366-8.022-.812-5.18 2.728-10.036 7.907-10.848l544.84-85.428c5.173-.812 10.036 2.728 10.848 7.906.812 5.18-2.728 10.036-7.907 10.848l-544.84 85.428C1452.203 2698.841 1451.707 2698.879 1451.218 2698.879zM1469.727 2777.184c-4.594 0-8.632-3.342-9.366-8.022-.812-5.18 2.728-10.036 7.907-10.848l544.839-85.428c5.177-.812 10.036 2.728 10.848 7.906.812 5.18-2.728 10.036-7.907 10.848l-544.839 85.428C1470.711 2777.146 1470.216 2777.184 1469.727 2777.184z"></path>
                            </g>
                        </g>
                        <g>
                            <ellipse cx="1540.829" cy="1980.545" fill="#ef5e8e" rx="186.332" ry="215.42"
                                     transform="rotate(-48.479 1540.802 1980.55)"></ellipse>
                            <g>
                                <path fill="#fff"
                                      d="M1485.506 2016.916c-.711-1.169-1.808-2.091-3.294-2.768l-49.246-23.046 43.869-31.723c1.203-.947 2.07-2.01 2.601-3.188.53-1.175.737-2.349.618-3.52-.249-2.457-1.515-4.722-3.791-6.796-2.28-2.074-4.589-2.992-6.927-2.755-1.171.119-2.403.51-3.693 1.173-1.293.663-2.652 1.54-4.077 2.629l-53.703 38.599c-1.321.962-2.258 2.21-2.812 3.742-.553 1.535-.747 3.12-.581 4.758.154 1.521.656 2.978 1.507 4.367.85 1.393 2.024 2.485 3.523 3.277l60.43 27.732c1.732.771 3.368 1.462 4.909 2.073 1.538.615 2.951.854 4.239.723 1.988-.201 3.839-1.481 5.55-3.842 1.71-2.36 2.423-4.945 2.139-7.752C1486.636 2019.315 1486.214 2018.085 1485.506 2016.916zM1574.298 1882.926c-2.209-1.372-4.307-1.958-6.295-1.756-1.522.154-2.935.772-4.245 1.849-1.309 1.08-2.291 2.479-2.942 4.199l-56.456 153.049c-.559 1.476-.768 2.916-.625 4.319.261 2.572 1.527 4.57 3.799 5.997 2.272 1.423 4.4 2.035 6.391 1.833 1.637-.166 3.081-.785 4.332-1.857 1.249-1.073 2.202-2.47 2.855-4.189l56.281-153.032c.559-1.476.768-2.915.625-4.319C1577.746 1886.328 1576.503 1884.297 1574.298 1882.926zM1679.763 1967.52c-.166-1.637-.674-3.151-1.524-4.544-.85-1.391-2.019-2.424-3.506-3.101l-60.43-27.733c-1.734-.768-3.37-1.459-4.908-2.073-1.541-.611-2.954-.853-4.239-.723-1.873.19-3.693 1.469-5.462 3.833-1.771 2.369-2.511 4.953-2.227 7.762.131 1.288.548 2.513 1.26 3.684.709 1.168 1.808 2.094 3.294 2.769l49.246 23.043-43.869 31.724c-1.205.95-2.076 1.983-2.61 3.101-.538 1.119-.74 2.322-.609 3.607.249 2.457 1.512 4.723 3.792 6.797 2.276 2.073 4.586 2.991 6.927 2.754 1.286-.13 2.542-.552 3.772-1.27 1.226-.714 2.56-1.559 3.998-2.532l53.704-38.599c1.321-.96 2.258-2.208 2.812-3.743C1679.736 1970.745 1679.929 1969.16 1679.763 1967.52z"></path>
                            </g>
                        </g>
                    </g>
                </g>
                <g>
                    <path fill="#232d57" d="M2285.865,2974.971l581.104,86.733c7.071,1.389,14.401,1.31,21.543-0.232l736.875-159.093
					c8.169-1.764,14.149-9.026,14.271-17.332l0.19-12.976l-458.967-62.85l-904.864,136.466l-0.246,16.748
					C2275.681,2968.575,2279.886,2973.796,2285.865,2974.971z"></path>
                    <path fill="#293463" d="M2276.017,2945.687l591.352,88.746c7.071,1.389,14.401,1.31,21.543-0.232l750.936-162.129
					l-450.993-88.013c-4.985-1.388-10.258-1.623-15.428-0.688L2276.017,2945.687z"></path>
                </g>
            </g>
        </g>
        <g>
            <g>
                <g>
                    <path fill="#232d57" d="M4261.563,3251.623c0,0-288.946-55.881-407.523-38.163
					c-83.117,12.42-147.199,50.429-186.724,125.392l556.085,129.48L4261.563,3251.623z"></path>
                    <g>
                        <g>
                            <path fill="#293463" d="M3402.664,3432.927c0,0-27.02,55.85-27.02,257.567c0,193.544-4.089,309.506-4.089,309.506
							h314.842c0,0,40.889-210.011,42.251-241.359C3730.012,3727.293,3506.008,3435.683,3402.664,3432.927z"></path>
                            <path fill="#1b1f3f" d="M3719.321,3822.271c5.148-30.006,8.929-54.462,9.328-63.63
							c0.48-11.032-26.971-54.309-67.232-105.873l-113.886-11.073C3547.531,3641.696,3610.817,3724.961,3719.321,3822.271z"></path>
                        </g>
                        <path fill="#293463" d="M4313.252,3413.842c0,0-523.452-100.874-637.957-114.505
						c-114.505-13.632-231.737,2.726-272.632,133.589c-40.895,130.863,316.252,381.684,583.431,403.495
						S4313.252,3413.842,4313.252,3413.842z"></path>
                    </g>
                </g>
                <g>
                    <path fill="#ffb1a4" d="M4060.36,2387.495c0,0-175.59-211.659-224.949-230.644
					c-42.674-16.413-118.334,1.027-142.428-37.87c-6.225-10.049-8.274-22.129-6.264-33.778
					c3.329-19.303,10.555-58.448,16.205-69.747c7.594-15.187-46.511-51.257-79.733-94.92
					c-32.022-42.086,19.203-33.859,38.917-13.289c21.832,22.781,82.58,74.037,97.767,77.834
					c15.187,3.797,10.757-33.62,41.765-31.323c25.628,1.898,36.069-26.578,55.053-11.39c18.984,15.187,58.85,95.869,93.021,126.243
					c34.171,30.375,250.588,148.075,250.588,148.075S4121.109,2341.933,4060.36,2387.495z"></path>
                    <g>
                        <g>
                            <path fill="#ef5e8e" d="M4398.806,1923.067c0,0-4.971,24.598-7.705,47.763c-1.663,14.09-6.527,27.985-17.869,36.233
							c-29.989,21.81-222.587,106.693-256.273,133.589c-51.637,41.229-104.368,377.984-38.867,571.64
							c18.549,54.84,87.243,147.251,96.828,210.743c18.433,122.105-4.511,270.906-17.066,340.859
							c-19.084,106.326-73.61,237.189,54.526,316.252c128.137,79.063,725.2,16.358,834.252-133.589
							c0,0,13.632-834.252-21.811-1106.884c-35.442-272.632-89.968-368.053-234.463-378.958
							c-87.22-6.583-128.746-5.218-147.962-24.689c-12.619-12.786-15.617-34.555-28.194-72.035L4398.806,1923.067z"></path>
                            <path fill="#e25088" d="M5024.821,2339.674c-35.442-272.632-89.968-368.052-234.463-378.957
							c-87.22-6.583-128.746-5.219-147.962-24.689c-12.619-12.786-15.617-34.555-28.194-72.035l-52.519,14.403
							c3.201,45.288,10.036,90.046,21.9,131.364c55.053,191.738,98.716,317.032,216.417,389.171
							c51.473,31.548,143.609,38.407,233.38,28.834C5030.908,2394.399,5028.071,2364.673,5024.821,2339.674z"></path>
                        </g>
                        <g>
                            <path fill="#ffb1a4" d="M4373.965,2006.505c50.222-2.192,167.636-12.635,281.886-61.483
							c-32.402-13.095-79.862-304.707-79.862-354.806l-193.636,260.08C4382.353,1850.295,4403.17,1984.21,4373.965,2006.505z"></path>
                            <path fill="#e37e73" d="M4577.22,1610.576c-17.024,97.787-28.455,241.024-2.56,363.208
							c26.61-7.683,53.989-17.132,81.191-28.762C4626.525,1933.17,4584.867,1693.183,4577.22,1610.576z"></path>
                            <g>
                                <g>
                                    <path fill="#ffb1a4" d="M4313.977,1273.29c0,0-93.792,47.305-121.083,140.372
									c-23.971,81.741-53.4,192.987-40.76,350.287s133.636,206.448,290.483,108.219s252.004-321.738,202.123-464.833
									S4414.919,1228.224,4313.977,1273.29z"></path>
                                </g>
                                <path fill="#212851" d="M4207.383,1381.075c22.191,17.904,174.969,232.87,170.223,296.466
								c-4.153,55.647,73.518,117.463,102.159,168.114c6.93,12.255,20.627,15.408,34.418,18.24
								c44.72,9.182,95.977,16.775,129.198-26.888c0,0,95.906-225.887,81.175-332.214
								c-12.829-92.601-54.598-258.187-274.812-267.679c-159.071-6.857-229.512,76.249-248.727,114.245
								C4195.871,1361.537,4198.506,1373.913,4207.383,1381.075z"></path>
                                <g>
                                    <path fill="#ffb1a4" d="M4352.368,1692.417c1.432-17.568,6.903-34.562,15.736-49.815
									c14.493-25.027,31.692-55.198,65.025-48.428c50.375,10.23,46.56,94.664,7.943,126.116
									C4404.292,1750.244,4345.428,1777.559,4352.368,1692.417z"></path>
                                    <path fill="#e37e73" d="M4439.657,1671.605c-13.865-10.626-31.154-3.512-40.346,1.764
									c9.123-18.285,23.092-39.081,39.141-38.141c0.341,0.02,0.69,0.05,1.033,0.09c1.5,0.161,2.849-0.897,3.023-2.392
									c0.175-1.495-0.896-2.849-2.392-3.023c-33.167-3.848-56.207,65.516-57.172,68.472c-0.467,1.431,0.315,2.97,1.747,3.437
									c0.228,0.074,0.459,0.117,0.688,0.131c1.206,0.071,2.356-0.674,2.748-1.876c0.074-0.226,2.583-7.79,6.95-17.675
									c0.41-0.078,0.809-0.241,1.161-0.515c0.237-0.185,23.955-18.319,40.102-5.943c1.194,0.915,2.907,0.689,3.822-0.506
									C4441.078,1674.232,4440.852,1672.521,4439.657,1671.605z"></path>
                                </g>
                                <path fill="#1b2449" d="M4625.348,1383.29c0,0,1.898,70.241-20.882,119.599
								c-17.596,38.124-53.312,205.362-43.289,367.87c30.547,1.542,60.298-4.959,82.205-33.752c0,0,95.906-225.887,81.175-332.214
								c-4.713-34.021-13.333-77.895-33.274-120.259C4651.139,1382.198,4625.348,1383.29,4625.348,1383.29z"></path>
                            </g>
                            <path fill="#ef5e8e" d="M4525.208,1242.788c0,0-39.87,42.718-2.848,88.284s59.805,62.653,79.741,85.436
							c19.935,22.783,68.349,22.783,96.828,5.696s34.174-37.022,14.239-76.893
							C4693.233,1305.441,4559.383,1177.287,4525.208,1242.788z"></path>
                            <path fill="#212851" d="M4614.333,1314.235c-20.672-19.922-18.817-53.708,3.691-71.529
							c34.228-27.099,86.042-54.337,152.102-48.332c125.307,11.391,170.873,176.568,153.786,293.331
							c-17.087,116.763-17.087,324.658,65.501,421.486s230.678,336.05,153.786,469.9c-76.893,133.85-529.706-173.72-538.249-518.314
							s65.501-447.117,37.022-506.922C4633.517,1336.1,4623.807,1323.365,4614.333,1314.235z"></path>
                        </g>
                        <path fill="#e25088" d="M4060.409,2638.882c4.247,26.123,10.052,50.852,17.682,73.411
						c18.549,54.84,87.243,147.251,96.828,210.743c0.341,2.259,0.664,4.529,0.977,6.805
						c105.573-209.123,124.33-488.097,124.33-488.097L4060.409,2638.882z"></path>
                    </g>
                    <g>
                        <path fill="#ffb1a4" d="M3717.521,2880.318c0,0-222.395,6.547-355.985,25.631
						c-133.59,19.084-270.4,11.626-294.937-10.184s-101.386-50.648-172.271-37.017c-21.811,8.179-25.138,23.776-44.222,23.776
						s-122.684,21.811-122.684,43.621c1.754,29.417,76.337-2.726,95.421,2.727c19.084,5.453,73.61,70.884,117.231,81.789
						s59.979,5.453,73.611,8.179c13.631,2.726,518.153,102.437,848.507,56.87C3919.445,3042.994,3766.595,2967.56,3717.521,2880.318
						z"></path>
                        <path fill="#ef5e8e" d="M4174.353,2130.694c-28.881-3.563-57.528,8.281-76.272,30.54
						c-27.566,32.733-79.926,105.176-120.165,222.061c-57.253,166.305-150.665,342.577-180.654,391.651
						c-29.99,49.073-137.063,122.771-145.242,193.656c-8.179,70.884,55.991,101.725,156.865,112.63
						c100.874,10.905,162.698-74.743,283.537-207.2c141.768-155.4,245.368-378.958,218.105-523.452
						C4288.619,2234.468,4245.585,2139.481,4174.353,2130.694z"></path>
                        <path fill="#ef5e8e" d="M3716.016,2876.378c0,0-222.112,10.441-309.438,22.781c0,0-54.104,71.19-18.035,174.652
						c0,0,375.882,48.409,473.65,1.898L3716.016,2876.378z"></path>
                    </g>
                </g>
            </g>
            <g>
                <path fill="#e0dad7" d="M4390.143,2322.996c0,0-136.685,345.508-159.465,687.219s-98.716,573.315-235.401,675.829
				s-303.743,53.155-391.069,64.545c0,0-3.797,72.139,7.594,94.92c11.39,22.781,129.091,116.523,258.182,154.491h1154.875
				c0,0,90.472-162.084,109.456-378.501c18.984-216.417-41.765-421.444,49.358-770.749s79.733-531.551,75.936-634.064
				C5259.608,2216.686,4815.384,2186.312,4390.143,2322.996z"></path>
                <path fill="#d4cdca" d="M4390.143,2322.996c0,0-18.92,47.831-43.854,125.488
				c107.768-18.511,611.546-101.845,915.498-96.237c1.276-56.677-0.889-100.725-2.179-135.561
				C5259.608,2216.686,4815.384,2186.312,4390.143,2322.996z"></path>
                <g>
                    <path fill="#c9c3c0" d="M3620.622,3770.523c-9.698,0-17.561-7.862-17.561-17.561V3529.87
					c0-48.543,21.553-94.007,59.131-124.734c37.579-30.727,86.418-42.821,133.991-33.182l392.461,80.471
					c9.5,1.948,15.623,11.229,13.675,20.729c-1.947,9.5-11.23,15.624-20.729,13.675l-392.421-80.463
					c-37.165-7.532-75.356,1.928-104.745,25.958c-29.387,24.03-46.241,59.584-46.241,97.546v223.092
					C3638.182,3762.66,3630.32,3770.523,3620.622,3770.523z"></path>
                </g>
                <path fill="#c9c3c0" d="M4390.143,2322.996c0,0-136.685,345.508-159.465,687.219s-98.716,573.315-235.401,675.829
				s-303.743,53.155-391.069,64.545c0,0-0.988,18.783-0.443,40.206c441.487,84.78,540.33-92.123,573.758-207.264
				c34.171-117.7,98.716-429.037,121.497-664.438c19.495-201.441,122.394-525.202,151.679-614.428
				C4430.504,2310.414,4410.302,2316.516,4390.143,2322.996z"></path>
                <g>
                    <g>
                        <path fill="#d4cdca" d="M4470.269,2691.266c-20.237,0-31.642-0.19-31.974-0.196c-2.359-0.042-4.237-1.987-4.195-4.346
						c0.041-2.333,1.945-4.196,4.269-4.196c0.026,0,0.052,0,0.077,0.001c0.994,0.017,100.965,1.679,239.954-5.022
						c128.223-6.183,316.818-20.947,487.125-56.184c2.31-0.48,4.57,1.007,5.048,3.317c0.479,2.31-1.007,4.57-3.317,5.048
						c-170.869,35.353-359.969,50.159-488.515,56.354C4586.013,2690.511,4510.601,2691.266,4470.269,2691.266z"></path>
                    </g>
                    <g>
                        <path fill="#d4cdca" d="M4559.834,2979.41c-90.577,0-149.47-3.6-150.2-3.646c-2.354-0.146-4.144-2.175-3.996-4.529
						c0.147-2.354,2.187-4.133,4.529-3.996c0.91,0.057,92.514,5.652,223.227,2.837c120.585-2.596,300.064-13.085,470.315-48.31
						c2.319-0.478,4.571,1.008,5.048,3.317c0.479,2.31-1.007,4.57-3.317,5.048c-170.915,35.362-350.989,45.886-471.956,48.487
						C4607.224,2979.185,4582.532,2979.41,4559.834,2979.41z"></path>
                    </g>
                    <g>
                        <path fill="#d4cdca" d="M4675.689,3278.883c-30.533,0-59.125-0.523-85.131-1.336
						c-135.311-4.229-231.512-16.99-232.468-17.118c-2.338-0.314-3.979-2.464-3.665-4.802c0.314-2.339,2.473-3.985,4.802-3.665
						c0.953,0.128,96.807,12.839,231.707,17.05c124.426,3.879,308.461,1.122,478.615-34.081c2.32-0.48,4.571,1.008,5.048,3.317
						c0.479,2.31-1.007,4.57-3.317,5.048C4935.875,3271.311,4791.812,3278.883,4675.689,3278.883z"></path>
                    </g>
                    <g>
                        <path fill="#d4cdca" d="M4757.727,3609.18c-72.741,0-148.204-4.581-224.699-13.65
						c-143.883-17.059-242.879-44.491-243.862-44.767c-2.271-0.636-3.598-2.992-2.962-5.264c0.635-2.272,2.99-3.599,5.264-2.963
						c0.979,0.273,99.467,27.556,242.735,44.53c132.129,15.653,330.462,25.492,524.975-16.538c2.306-0.507,4.579,0.967,5.077,3.272
						s-0.967,4.579-3.272,5.077c-86.447,18.68-180.82,28.824-280.497,30.15C4772.935,3609.129,4765.339,3609.18,4757.727,3609.18z"></path>
                    </g>
                    <g>
                        <path fill="#d4cdca" d="M4737.969,3924.359c-25.997,0-52.395-0.58-79.164-1.742
						c-84.569-3.673-172.941-13.133-262.663-28.118c-152.769-25.515-257.947-58.687-258.991-59.019
						c-2.248-0.715-3.491-3.116-2.776-5.364c0.714-2.247,3.117-3.49,5.364-2.776c1.04,0.33,105.756,33.348,257.964,58.759
						c140.381,23.438,351.029,45.011,557.345,14.7c2.344-0.351,4.504,1.271,4.847,3.604c0.344,2.334-1.271,4.504-3.604,4.847
						C4887.85,3919.305,4814.684,3924.359,4737.969,3924.359z"></path>
                    </g>
                </g>
            </g>
        </g>
    </g>
</svg>