<?xml version="1.0" standalone="no"?>
<!DOCTYPE svg PUBLIC "-//W3C//DTD SVG 20010904//EN"
 "http://www.w3.org/TR/2001/REC-SVG-20010904/DTD/svg10.dtd">
<svg version="1.0" xmlns="http://www.w3.org/2000/svg"
 width="640.000000pt" height="640.000000pt" viewBox="0 0 640.000000 640.000000"
 preserveAspectRatio="xMidYMid meet">
<g transform="translate(0.000000,640.000000) scale(0.100000,-0.100000)"
fill="#000000" stroke="none">
<path d="M3078 6065 c-3 -3 -49 -9 -104 -15 -176 -17 -357 -95 -328 -141 8
-14 21 -11 62 15 73 47 203 80 362 91 156 11 504 -51 590 -106 24 -15 157 -79
165 -79 8 0 202 -128 230 -151 11 -10 38 -33 59 -51 38 -32 111 -114 224 -249
52 -63 93 -120 149 -207 16 -24 56 -87 91 -140 57 -88 132 -227 132 -246 0 -4
12 -33 26 -64 63 -136 82 -180 94 -222 8 -25 17 -49 21 -55 4 -5 10 -24 13
-42 4 -17 14 -37 22 -44 8 -6 14 -18 14 -26 0 -7 14 -43 30 -78 17 -35 30 -71
30 -79 0 -8 4 -17 9 -20 5 -3 11 -18 14 -33 2 -16 16 -67 31 -114 29 -97 41
-241 26 -310 -26 -122 -39 -168 -58 -213 -12 -27 -22 -53 -22 -59 0 -15 -68
-154 -104 -211 -18 -28 -38 -67 -45 -86 -8 -19 -19 -49 -27 -65 -27 -64 -28
-131 -3 -208 38 -115 90 -209 128 -234 40 -27 50 -28 57 -8 4 9 -9 32 -31 56
-52 58 -95 155 -108 244 -9 64 -8 81 8 122 24 64 63 148 95 203 39 69 85 182
127 315 35 112 38 128 38 245 -1 109 -4 137 -28 215 -16 50 -35 115 -43 145
-15 55 -61 152 -95 202 -11 14 -19 40 -19 57 0 18 -9 49 -20 70 -10 21 -38 85
-60 142 -23 57 -50 124 -61 147 -11 24 -29 68 -40 97 -11 29 -37 78 -59 109
-22 31 -40 60 -40 63 0 18 -104 181 -180 282 -124 165 -261 314 -352 382 -43
32 -83 59 -87 59 -5 0 -11 4 -13 8 -4 11 -179 122 -191 122 -5 0 -42 15 -82
34 -39 19 -85 38 -101 41 -16 4 -38 10 -49 15 -29 12 -155 43 -190 46 -16 2
-77 10 -135 18 -110 16 -163 19 -172 11z"/>
<path d="M2360 5896 c-95 -16 -243 -94 -374 -196 -32 -24 -88 -82 -133 -135
-88 -106 -152 -189 -164 -214 -35 -76 -47 -96 -81 -141 -39 -52 -96 -173 -119
-250 -7 -25 -16 -49 -21 -54 -4 -6 -8 -19 -8 -29 0 -24 -75 -203 -100 -237
-10 -14 -38 -64 -64 -112 -25 -48 -63 -115 -84 -150 -22 -36 -42 -73 -46 -84
-9 -30 -125 -144 -145 -144 -22 0 -101 -45 -101 -57 0 -40 136 19 223 96 23
21 83 114 110 171 4 8 16 29 27 45 11 17 32 55 46 85 15 30 30 57 35 58 5 2 9
9 9 16 0 7 12 28 26 47 17 22 24 27 21 14 -3 -11 -10 -42 -17 -70 -31 -136
-58 -234 -72 -262 -8 -16 -8 -26 1 -37 10 -12 9 -21 -3 -43 -20 -41 -57 -190
-50 -208 3 -8 -1 -36 -9 -62 -32 -102 -46 -202 -53 -383 -4 -128 2 -184 27
-232 5 -10 9 -24 9 -31 0 -21 70 -186 102 -241 35 -58 55 -85 107 -141 61 -67
145 -170 166 -206 64 -106 79 -137 91 -183 8 -28 14 -73 14 -101 0 -64 -42
-182 -75 -212 -30 -29 -30 -29 -5 -43 35 -19 65 13 100 103 29 75 31 90 28
177 -3 79 -8 105 -31 153 -58 120 -140 233 -251 347 -76 78 -156 193 -156 226
0 12 -4 25 -9 28 -14 9 -50 83 -50 103 0 10 -5 38 -11 63 -15 55 -15 384 0
420 6 14 19 72 29 130 10 58 32 159 49 225 17 66 45 179 62 250 18 72 50 198
72 280 22 83 46 175 54 205 19 80 42 149 65 195 76 147 128 240 174 311 58 88
262 302 310 326 17 8 77 40 135 70 109 58 155 72 230 73 56 0 68 27 19 44 -18
6 -35 11 -38 10 -3 0 -35 -6 -71 -13z"/>
<path d="M2909 5133 c-11 -29 -10 -45 10 -168 22 -136 98 -360 168 -500 58
-113 134 -195 182 -195 19 0 13 10 -38 59 -69 68 -166 272 -232 491 -6 19 -14
44 -19 55 -14 35 -30 150 -30 219 0 52 -3 66 -15 66 -9 0 -20 -12 -26 -27z"/>
<path d="M2401 5126 c-49 -58 -62 -426 -22 -611 42 -196 120 -359 164 -342 14
5 9 19 -30 93 -25 48 -50 103 -54 123 -4 20 -18 77 -31 126 -20 80 -23 113
-22 290 0 112 6 226 12 259 12 61 5 88 -17 62z"/>
<path d="M2569 4983 c-21 -24 -23 -338 -3 -468 8 -55 17 -111 19 -125 5 -36
40 -160 52 -190 14 -32 59 -74 67 -62 3 5 -2 24 -10 42 -16 31 -29 74 -40 130
-3 14 -9 34 -14 45 -28 69 -50 303 -46 488 2 86 0 157 -4 157 -4 0 -14 -7 -21
-17z"/>
<path d="M3450 4921 c0 -16 7 -46 16 -67 9 -22 23 -63 30 -93 25 -93 79 -206
162 -336 6 -11 15 -27 19 -35 19 -40 149 -174 162 -166 17 11 14 18 -25 60
-36 39 -99 124 -122 164 -58 104 -102 186 -102 193 0 5 -11 32 -25 61 -14 28
-25 59 -25 67 0 16 -49 146 -63 169 -14 21 -27 13 -27 -17z"/>
<path d="M2013 4913 c-7 -15 -13 -34 -13 -43 0 -9 -4 -20 -9 -25 -11 -11 -46
-133 -87 -305 -25 -105 -28 -132 -28 -315 -1 -173 1 -204 17 -232 11 -21 25
-33 38 -33 22 0 22 1 2 80 -13 54 -11 314 3 358 8 23 14 59 14 79 0 36 46 219
81 323 10 30 21 74 25 98 6 37 4 42 -12 42 -11 0 -24 -12 -31 -27z"/>
<path d="M1715 4378 c-8 -23 -26 -122 -37 -204 -11 -78 -4 -150 28 -294 9 -40
58 -105 82 -108 28 -4 28 0 -2 46 -13 20 -31 70 -40 110 -19 85 -23 272 -7
351 16 77 14 111 -4 111 -9 0 -18 -6 -20 -12z"/>
<path d="M4110 4314 c0 -15 14 -70 30 -122 17 -52 28 -102 26 -109 -8 -19 11
-53 29 -53 19 0 30 62 16 88 -6 12 -11 32 -11 46 0 14 -4 28 -10 31 -5 3 -10
14 -10 24 0 16 -16 57 -39 100 -14 27 -31 24 -31 -5z"/>
<path d="M3238 4023 c-15 -18 6 -48 49 -70 34 -18 38 -25 49 -79 6 -32 17 -73
23 -90 22 -57 101 -82 151 -47 33 22 41 35 34 55 -2 9 0 19 6 23 5 3 10 15 10
25 0 35 -63 151 -94 175 -28 21 -40 24 -124 22 -58 -1 -97 -7 -104 -14z"/>
<path d="M4285 4008 c-41 -22 -65 -52 -65 -80 0 -33 25 -39 35 -7 4 11 20 28
36 38 24 14 40 16 94 10 101 -13 176 -71 207 -165 16 -47 16 -143 0 -201 -31
-108 -191 -266 -300 -297 -32 -9 -66 -16 -75 -16 -23 0 -21 -27 2 -40 74 -39
295 106 379 249 42 72 52 109 52 207 0 107 -19 160 -79 223 -69 72 -222 115
-286 79z"/>
<path d="M2280 3839 c-19 -4 -51 -5 -71 -2 -20 3 -39 1 -42 -4 -8 -13 21 -53
38 -53 20 0 38 -37 32 -67 -2 -14 4 -57 14 -96 27 -105 61 -127 146 -96 52 19
65 132 23 209 -23 44 -88 121 -100 119 -3 -1 -21 -5 -40 -10z"/>
<path d="M1753 3645 c13 -97 37 -209 46 -218 5 -5 16 -7 24 -4 25 9 -21 213
-56 244 -19 18 -19 17 -14 -22z"/>
<path d="M1818 3273 c-13 -49 2 -181 28 -253 14 -41 30 -77 34 -80 5 -3 22
-22 38 -43 58 -73 174 -147 337 -216 88 -38 223 -62 561 -103 94 -11 101 -13
111 -37 19 -46 26 -137 11 -160 -11 -18 -11 -23 2 -31 27 -18 55 -7 54 20 -1
53 -17 147 -30 180 -25 59 -40 69 -103 69 -31 0 -67 4 -81 9 -14 5 -49 10 -79
11 -47 1 -138 15 -251 41 -19 4 -60 13 -90 20 -30 6 -107 37 -170 68 -126 61
-203 124 -264 216 -43 65 -56 108 -62 196 -4 70 -16 110 -33 110 -5 0 -11 -8
-13 -17z"/>
<path d="M4093 3208 c-5 -7 -20 -34 -32 -60 -13 -26 -48 -70 -77 -97 -30 -28
-54 -55 -54 -61 0 -5 -3 -9 -7 -8 -10 3 -98 -56 -145 -98 -20 -18 -50 -40 -66
-48 -16 -8 -45 -35 -65 -59 l-37 -45 11 -88 c12 -105 32 -157 65 -173 32 -14
44 11 19 39 -19 21 -26 64 -28 174 -1 64 0 70 28 93 17 13 54 36 84 51 29 14
60 36 68 48 8 12 27 27 43 34 15 6 47 34 70 61 23 27 47 49 53 50 7 0 36 29
65 65 52 63 63 99 40 122 -15 15 -23 15 -35 0z"/>
<path d="M2975 3152 c-48 -4 -80 -39 -71 -77 7 -26 63 -59 92 -53 28 5 29 28
2 28 -48 0 -65 44 -22 54 39 10 94 -12 105 -41 10 -28 33 -26 36 3 6 45 -70
91 -142 86z"/>
<path d="M3887 2813 c-13 -20 3 -107 29 -157 26 -52 70 -90 118 -102 36 -9 33
1 -18 49 -42 39 -74 97 -89 157 -8 34 -32 66 -40 53z"/>
<path d="M4492 2698 c-14 -14 -15 -52 -3 -76 5 -9 12 -25 15 -34 6 -22 60 -50
80 -42 22 8 20 34 -2 34 -22 0 -42 39 -42 80 0 34 -29 57 -48 38z"/>
<path d="M4315 2678 c-16 -48 -1 -93 40 -118 55 -34 76 -18 33 27 -11 12 -24
39 -27 60 -6 38 -36 59 -46 31z"/>
<path d="M3773 2461 c-262 -268 -325 -328 -370 -357 -29 -19 -57 -34 -63 -34
-5 0 -18 -4 -28 -9 -28 -16 -73 -24 -129 -24 -41 0 -63 7 -109 34 -116 69
-228 197 -241 273 -5 29 -2 39 18 55 20 16 21 21 10 35 -7 9 -22 16 -33 16
-28 0 -76 -27 -88 -50 -14 -26 -4 -45 15 -30 18 15 35 4 35 -21 0 -39 55 -132
115 -194 57 -59 135 -116 198 -143 32 -14 193 -16 201 -3 3 4 18 11 33 14 67
13 179 109 388 332 65 69 121 125 124 125 3 0 24 -16 46 -35 28 -25 49 -35 72
-35 36 0 39 -6 21 -44 -8 -19 -16 -24 -33 -20 -18 4 -46 -20 -156 -133 -74
-76 -161 -161 -194 -189 -33 -28 -89 -76 -124 -107 -36 -31 -102 -75 -148 -98
-75 -38 -87 -41 -132 -35 -53 7 -75 -6 -42 -23 41 -22 109 -13 184 26 69 35
204 132 257 185 14 14 53 48 86 76 34 28 97 88 140 132 84 87 108 89 55 4 -17
-26 -31 -53 -31 -60 0 -7 -3 -14 -7 -16 -33 -14 -229 -406 -268 -533 -10 -33
-40 -116 -67 -185 -54 -134 -87 -247 -88 -293 0 -24 4 -28 22 -25 17 2 24 12
30 43 8 43 45 167 58 200 5 11 22 52 38 90 17 39 33 90 37 115 3 25 12 54 19
65 7 11 19 38 26 60 7 22 25 65 41 96 15 31 25 60 21 63 -3 4 -2 10 4 14 5 4
31 43 56 87 110 193 118 207 161 272 15 23 27 44 27 47 0 4 18 36 40 72 22 36
40 68 40 71 0 2 14 24 30 48 17 24 30 48 30 54 0 20 -36 11 -57 -13 -21 -24
-23 -24 -65 -9 -23 8 -52 23 -63 32 -23 22 -59 41 -74 41 -6 0 -37 -26 -68
-59z"/>
<path d="M1969 2498 c-1 -2 -2 -42 -3 -90 -1 -94 8 -112 39 -77 30 33 9 169
-26 169 -5 0 -10 -1 -10 -2z"/>
<path d="M2145 2480 c-3 -6 -3 -20 1 -33 4 -12 7 -31 6 -42 -5 -53 41 -58 53
-6 11 51 -38 117 -60 81z"/>
<path d="M4130 2455 c-28 -29 -26 -47 4 -39 17 4 25 0 31 -13 9 -23 23 -145
34 -298 5 -66 21 -178 36 -250 30 -145 44 -220 48 -250 1 -15 -7 -22 -36 -29
-50 -13 -88 8 -142 77 -43 54 -80 73 -122 62 -30 -7 -163 -131 -163 -152 0
-26 28 -12 98 52 40 36 81 65 92 65 16 0 90 -73 90 -90 0 -13 64 -53 97 -60
46 -11 100 6 119 36 18 26 16 41 -21 214 -23 108 -41 241 -60 435 -8 94 -18
180 -21 192 -6 22 -4 23 53 20 32 -2 74 -11 92 -20 19 -9 43 -17 53 -17 52 0
197 -142 247 -242 8 -16 18 -28 23 -28 4 0 8 -6 8 -12 1 -7 34 -53 76 -102 41
-49 96 -119 121 -155 26 -36 64 -86 85 -110 83 -96 115 -181 87 -233 -8 -14
-8 -23 0 -31 6 -6 11 -26 11 -45 0 -48 12 -64 73 -96 31 -16 83 -51 117 -79
l62 -50 -4 -53 c-3 -32 -12 -62 -22 -73 -22 -25 -4 -38 29 -21 59 32 60 141 1
208 -11 12 -23 22 -28 22 -5 0 -18 9 -30 20 -12 11 -52 38 -89 60 l-67 40 4
93 4 92 -61 100 c-33 55 -73 114 -88 130 -15 17 -39 48 -54 70 -15 22 -45 60
-67 85 -52 58 -143 178 -160 210 -40 77 -203 230 -245 230 -14 0 -43 10 -66
21 -42 23 -85 31 -177 33 -42 1 -57 -3 -72 -19z"/>
<path d="M2685 2341 c-13 -12 -19 -13 -22 -3 -12 32 -60 -4 -85 -63 -42 -102
-63 -308 -63 -615 1 -206 3 -247 23 -330 12 -52 27 -131 33 -175 6 -43 15 -88
21 -98 5 -10 6 -26 2 -35 -4 -9 -6 -21 -5 -27 3 -8 3 -94 1 -245 -1 -44 7
-110 13 -117 23 -22 29 26 28 219 -2 204 -16 334 -56 498 -12 50 -16 123 -16
323 0 142 2 266 5 275 3 9 10 63 16 119 13 123 33 193 64 230 l23 26 7 -52 c4
-29 28 -97 56 -157 42 -88 62 -117 127 -184 55 -57 87 -82 111 -86 38 -8 43 9
8 28 -13 7 -53 45 -88 83 -48 53 -77 97 -116 179 -52 108 -62 158 -42 196 13
25 -22 34 -45 11z"/>
<path d="M2480 2328 c-34 -9 -65 -14 -113 -17 -18 -1 -177 -110 -234 -160 -7
-6 -16 -11 -22 -11 -19 0 -97 -87 -119 -134 -44 -94 -7 -114 41 -22 21 40 47
71 81 97 28 21 92 69 141 106 50 37 92 71 93 75 5 11 22 10 22 0 0 -5 -24 -40
-53 -78 -29 -38 -77 -116 -107 -174 -29 -58 -61 -117 -71 -132 -11 -14 -19
-29 -19 -32 0 -4 -22 -40 -50 -81 -60 -89 -82 -142 -78 -187 5 -49 27 -41 46
17 10 28 47 97 83 155 36 58 92 155 124 215 106 202 208 325 271 325 38 0 51
14 34 35 -14 17 -20 17 -70 3z"/>
<path d="M1849 1823 c-66 -88 -104 -175 -154 -348 -39 -138 -79 -236 -110
-268 -12 -12 -50 -53 -84 -91 -58 -65 -62 -72 -56 -105 7 -39 28 -61 57 -61
22 0 23 18 2 41 -15 17 -15 20 0 44 10 15 36 45 58 68 70 72 104 120 126 177
20 55 77 238 91 295 4 17 15 46 24 65 8 19 19 46 23 60 3 14 10 27 13 30 4 3
18 22 30 43 13 21 35 49 49 62 13 12 21 28 18 34 -16 25 -45 9 -87 -46z"/>
<path d="M2229 1634 c-35 -10 -60 -29 -105 -79 -86 -96 -152 -131 -168 -89 -9
23 -38 -2 -34 -30 4 -27 45 -41 94 -32 30 6 54 24 115 87 67 69 125 109 158
109 15 0 41 -55 41 -85 0 -50 69 -175 97 -175 27 0 24 31 -6 78 -17 27 -31 58
-31 70 0 20 -6 39 -37 110 -8 18 -26 37 -39 43 -30 11 -28 11 -85 -7z"/>
<path d="M3419 1013 c-6 -16 -22 -89 -35 -163 -13 -74 -26 -147 -30 -163 -4
-20 -1 -29 11 -33 9 -4 18 -4 20 -2 5 5 32 143 33 168 2 40 23 154 32 170 11
20 4 50 -11 50 -5 0 -14 -12 -20 -27z"/>
</g>
</svg>
